<?xml version="1.0" standalone="no"?>
<!DOCTYPE svg PUBLIC "-//W3C//DTD SVG 20010904//EN"
 "http://www.w3.org/TR/2001/REC-SVG-20010904/DTD/svg10.dtd">
<svg version="1.0" xmlns="http://www.w3.org/2000/svg"
 width="612.000000pt" height="558.000000pt" viewBox="0 0 612.000000 558.000000"
 preserveAspectRatio="xMidYMid meet">

<g transform="translate(0.000000,558.000000) scale(0.100000,-0.100000)"
fill="#000000" stroke="none">
<path d="M4376 5557 c-12 -12 -42 -56 -66 -97 -185 -319 -411 -570 -737 -818
l-81 -61 -38 62 c-73 118 -191 218 -470 398 -315 204 -520 292 -924 398 -258
68 -504 100 -549 72 -17 -11 -11 -29 49 -161 26 -58 64 -151 83 -206 39 -111
90 -325 85 -355 -2 -14 -32 -31 -110 -63 -214 -87 -429 -217 -543 -329 l-70
-69 -82 26 c-235 77 -463 222 -730 464 -62 56 -119 102 -126 102 -23 0 -34
-21 -46 -90 -28 -170 -23 -422 14 -615 80 -417 259 -775 542 -1084 l83 -89
-20 -134 c-57 -395 -52 -910 16 -1328 22 -138 83 -416 101 -461 27 -68 66 -48
72 36 3 46 62 281 86 340 15 39 15 37 10 -80 -3 -66 -15 -201 -27 -300 -29
-241 -31 -554 -5 -667 10 -43 22 -80 27 -83 23 -14 54 27 149 202 57 103 108
194 115 201 17 18 1 -154 -29 -303 -22 -112 -86 -322 -113 -372 -28 -52 -2
-112 35 -81 20 16 63 17 63 1 0 -31 33 -10 51 33 55 123 99 383 99 582 0 189
-40 423 -78 454 -14 12 -14 5 -8 -55 l7 -68 -54 -72 c-66 -88 -128 -195 -166
-283 l-28 -65 -6 88 c-7 93 3 280 28 520 17 162 19 379 5 438 -6 22 -17 78
-25 125 -26 144 -73 270 -100 270 -19 0 -19 -5 6 -86 12 -38 27 -105 35 -149
l13 -80 -39 -80 c-22 -44 -48 -105 -59 -135 -22 -65 -19 -73 -56 140 -57 334
-76 659 -56 1000 14 226 38 487 40 426 2 -63 50 -261 97 -404 71 -214 211
-513 289 -617 20 -27 23 -46 29 -195 13 -299 34 -383 117 -474 68 -74 148
-123 368 -226 176 -83 583 -250 642 -265 18 -5 35 -22 53 -55 14 -26 26 -50
26 -53 0 -3 -33 -22 -73 -42 -94 -48 -299 -185 -407 -272 -121 -97 -335 -308
-355 -349 -28 -60 -18 -64 180 -64 l173 0 73 87 c41 49 142 156 224 239 131
132 159 156 225 187 112 54 126 54 185 9 68 -51 79 -86 71 -222 -4 -58 -13
-140 -21 -183 -15 -85 -12 -110 14 -105 13 3 33 45 47 104 2 11 97 -6 294 -51
88 -21 233 -35 361 -35 83 0 109 -3 119 -15 11 -13 88 -15 613 -13 l601 3 9
31 c7 24 3 45 -18 98 l-27 67 44 47 c74 80 211 251 299 374 273 380 507 846
619 1233 l26 90 47 7 c164 23 318 220 403 517 31 108 27 149 -17 194 -29 29
-32 29 -102 24 -40 -2 -80 -8 -89 -12 -15 -6 -18 -1 -18 31 0 51 -39 133 -79
167 -40 33 -78 35 -172 6 -39 -12 -71 -20 -72 -18 -1 2 -14 29 -30 59 -62 125
-115 159 -184 120 -33 -19 -164 -169 -174 -199 -3 -7 -26 0 -62 19 -34 19 -78
34 -111 37 -49 5 -57 3 -80 -20 -28 -28 -33 -64 -16 -113 6 -16 21 -92 33
-169 l24 -140 -46 -42 c-25 -23 -48 -42 -51 -43 -3 0 -18 28 -33 63 -37 84
-117 188 -195 252 l-64 53 1 269 c2 255 -7 404 -30 520 -10 49 -8 58 25 140
110 278 159 539 160 843 0 336 -64 636 -194 907 -79 167 -98 185 -144 140z
m-2566 -157 c322 -67 596 -163 895 -313 282 -141 578 -354 647 -465 22 -35 23
-47 23 -202 -1 -190 -16 -287 -71 -438 -41 -116 -127 -291 -186 -384 l-43 -66
-85 69 c-365 298 -779 522 -1238 670 -138 44 -167 45 -167 4 0 -13 -19 -22
-85 -39 -47 -13 -92 -26 -102 -30 -11 -5 -18 -2 -22 11 -5 16 -17 18 -83 19
-88 0 -173 11 -173 23 0 17 163 168 236 218 173 119 422 223 460 192 6 -5 19
-7 28 -3 23 9 21 70 -10 225 -41 213 -106 391 -186 507 -29 42 -29 43 -6 37
13 -3 88 -19 168 -35z m2559 -264 c1 -63 -2 -77 -13 -73 -8 3 -46 9 -85 13
-39 3 -71 8 -71 10 0 1 23 39 50 83 28 45 63 106 78 137 l27 56 6 -73 c4 -41
7 -109 8 -153z m-21 -122 c22 -6 22 -7 22 -210 0 -231 4 -222 -82 -178 -64 32
-232 87 -320 104 l-67 13 95 100 c52 55 107 117 122 138 l27 39 90 0 c50 0
100 -3 113 -6z m-3928 -503 c44 -33 98 -70 120 -82 22 -13 40 -26 40 -31 0
-36 -135 -238 -159 -238 -5 0 -21 35 -37 78 -16 44 -54 115 -90 167 -34 50
-75 117 -92 150 -26 53 -82 197 -82 212 0 3 49 -40 110 -96 60 -55 146 -128
190 -160z m3559 163 c135 -30 255 -72 329 -115 l54 -30 -7 -42 c-16 -95 -56
-131 -143 -129 -31 0 -142 14 -247 31 -152 25 -212 39 -297 72 l-107 42 70 43
c39 24 103 69 142 99 39 30 75 55 80 55 5 0 62 -12 126 -26z m-3126 -401 c49
-19 128 -44 175 -57 l87 -23 3 -57 c6 -106 -59 -284 -155 -429 -50 -76 -208
-247 -227 -247 -20 1 -73 102 -135 258 -34 85 -74 179 -90 210 -15 32 -38 83
-50 114 l-23 58 56 61 c34 36 71 91 94 138 l37 79 70 -35 c38 -20 109 -51 158
-70z m2980 -56 c146 -75 310 -178 383 -241 103 -89 179 -271 214 -517 11 -71
32 -680 24 -688 -2 -2 -10 2 -19 9 -18 15 -45 7 -45 -14 0 -8 15 -26 33 -41
70 -58 201 -193 243 -251 100 -139 122 -241 85 -378 -14 -51 -33 -93 -55 -120
-18 -22 -50 -67 -70 -100 -62 -98 -163 -211 -295 -329 -360 -322 -636 -480
-941 -538 -108 -21 -153 -24 -325 -23 -110 1 -252 7 -315 13 -63 7 -162 16
-220 21 -102 8 -110 11 -275 85 -94 43 -208 98 -255 123 -118 63 -359 233
-412 290 -57 60 -113 162 -148 266 -34 99 -91 238 -124 304 -23 46 -126 433
-167 632 -18 84 -49 284 -45 286 0 0 37 28 81 61 214 162 290 308 331 632 8
64 14 154 14 202 0 105 8 129 54 164 l36 27 132 -22 c192 -32 489 -125 637
-200 224 -113 371 -207 556 -355 65 -52 123 -95 130 -95 57 0 230 300 316 550
58 167 142 288 215 310 58 17 85 10 227 -63z m-2478 -52 c17 -43 35 -205 35
-324 0 -93 -19 -202 -44 -249 -26 -51 -238 -188 -346 -225 -102 -34 -160 -48
-179 -42 -21 6 -61 55 -61 73 0 5 36 45 81 88 110 108 170 189 234 319 63 128
87 212 89 311 l1 71 45 -5 c25 -2 61 1 80 6 19 6 38 11 42 11 4 1 14 -15 23
-34z m4065 -1227 c11 -18 20 -37 20 -42 0 -14 -71 2 -92 21 -19 17 -19 18 2
35 32 26 48 22 70 -14z m-66 -73 c23 -10 50 -13 70 -10 30 6 34 4 46 -24 17
-42 65 -82 88 -74 9 4 30 15 46 24 29 17 30 17 43 0 17 -25 74 -51 110 -51 25
0 33 -6 47 -38 23 -51 80 -112 105 -112 11 0 22 -9 26 -19 3 -11 19 -33 36
-49 l30 -29 -31 -78 c-36 -91 -73 -147 -129 -198 -74 -66 -220 -127 -307 -127
-46 0 -74 -19 -74 -50 0 -21 64 -70 92 -70 10 0 18 -3 18 -6 0 -4 -21 -63 -46
-133 -105 -291 -244 -587 -389 -829 -78 -129 -92 -146 -404 -483 -73 -79 -140
-161 -149 -181 -8 -21 -21 -38 -28 -38 -22 0 -32 -30 -22 -67 19 -69 -57 -173
-128 -173 -44 0 -80 18 -170 86 -110 82 -168 152 -195 231 -12 38 -53 143 -91
235 l-68 167 37 59 c36 56 293 313 582 581 198 184 299 320 416 566 49 102 73
141 113 179 l51 49 72 -32 c76 -34 175 -53 168 -33 -2 6 -36 44 -74 84 -149
154 -182 216 -193 370 l-8 103 35 42 36 41 33 -20 c31 -19 34 -19 58 -3 14 9
44 41 67 70 23 30 43 55 43 55 1 0 18 -7 38 -15z m-314 -41 c22 -9 40 -18 40
-21 0 -16 -25 -45 -50 -58 -46 -24 -57 -19 -63 26 -10 72 2 81 73 53z m719
-26 c11 -30 -11 -36 -46 -13 -20 14 -23 19 -12 26 25 15 49 10 58 -13z m269
-237 c3 -34 3 -34 -19 -19 -12 8 -29 25 -37 37 -15 22 -15 22 19 19 31 -3 34
-6 37 -37z m-3075 -1757 c40 -9 97 -28 127 -42 74 -35 166 -129 213 -219 l37
-72 -57 -8 c-95 -13 -330 -7 -433 11 -51 9 -96 19 -98 21 -3 3 0 73 5 156 7
110 14 153 24 160 22 14 103 11 182 -7z m-43 -409 c56 -21 241 -30 368 -18 66
6 96 6 102 -2 5 -7 32 -63 59 -126 48 -112 48 -114 27 -124 -11 -5 -120 -9
-241 -9 -215 -1 -294 6 -445 40 l-66 15 13 122 c6 67 12 129 12 138 1 15 7 15
64 -2 34 -10 82 -25 107 -34z"/>
<path d="M3643 4051 c-84 -39 -174 -160 -234 -315 -113 -294 -128 -651 -39
-939 l19 -60 -114 7 c-184 11 -267 46 -333 143 -53 76 -130 202 -168 273 -206
391 -462 609 -734 627 -151 10 -267 -36 -391 -154 -322 -308 -427 -814 -258
-1248 37 -93 87 -188 129 -240 l29 -37 -25 -34 c-25 -32 -27 -64 -4 -64 16 0
99 44 221 116 187 111 371 172 584 193 56 6 116 7 136 2 43 -10 60 -2 59 25
-1 10 -3 54 -6 97 -6 80 9 148 42 195 l15 22 65 -51 c89 -70 120 -112 106
-143 -7 -17 -7 -27 1 -35 17 -17 22 -15 106 44 165 116 328 166 536 166 72 0
152 -5 179 -11 31 -7 53 -7 59 -1 11 11 1 31 -18 31 -33 0 -25 44 30 163 30
65 48 71 87 30 50 -54 63 -91 63 -188 0 -103 11 -115 61 -69 35 33 201 113
299 145 39 12 74 26 79 31 14 11 53 10 61 -2 10 -16 43 -11 49 8 15 50 26 161
26 273 0 260 -64 485 -198 690 -89 136 -198 245 -297 296 -68 35 -164 41 -222
14z m203 -66 c74 -36 202 -165 274 -276 138 -214 200 -457 186 -728 -9 -190
-3 -178 -94 -173 -110 6 -222 -24 -354 -96 -3 -1 -9 12 -13 30 -12 54 -51 123
-90 156 l-36 32 28 0 c60 1 182 29 234 54 30 14 73 41 95 60 l41 35 29 -27
c16 -15 42 -43 57 -62 l28 -35 -5 140 c-11 334 -132 588 -323 677 -177 83
-349 24 -434 -148 -18 -35 -30 -67 -27 -69 2 -3 30 9 60 25 179 97 353 96 404
-3 21 -39 21 -112 1 -160 -52 -123 -278 -248 -455 -250 l-73 -1 6 -76 c9 -107
33 -245 49 -284 18 -43 31 -125 19 -111 -11 12 -35 97 -58 205 -26 122 -37
325 -25 442 20 200 97 431 184 552 91 127 168 151 292 91z m-1664 -282 c94
-33 167 -83 268 -183 154 -152 277 -355 333 -550 46 -159 78 -412 55 -436 -4
-4 -50 34 -102 84 -53 51 -100 92 -106 92 -6 0 -10 29 -10 73 0 294 -248 603
-517 646 -183 29 -390 -83 -482 -259 l-34 -65 65 61 c151 140 314 187 436 125
110 -56 136 -185 66 -323 -54 -107 -110 -166 -239 -252 -62 -41 -213 -86 -290
-86 -49 0 -65 -3 -65 -14 0 -43 98 -365 119 -390 7 -8 -4 -23 -36 -49 -25 -20
-49 -37 -52 -37 -13 0 -106 165 -138 245 -67 168 -77 220 -77 430 0 163 3 201
22 267 52 190 135 345 251 469 136 147 209 181 371 176 71 -3 124 -11 162 -24z
m1872 -319 c42 -41 -2 -124 -65 -124 -68 0 -108 88 -57 124 29 21 102 21 122
0z m-1670 -375 c40 -31 35 -72 -13 -120 -32 -32 -45 -39 -79 -39 -68 0 -95 46
-65 108 19 38 70 72 109 72 12 0 33 -9 48 -21z m1251 -86 c-16 -9 -42 -49 -77
-122 -29 -60 -59 -110 -67 -110 -15 -1 -17 -6 39 150 l41 115 45 -10 c43 -10
44 -11 19 -23z m-1139 -186 l42 -33 -23 -26 c-35 -41 -65 -131 -65 -196 l0
-58 -65 4 c-139 9 -355 -35 -498 -100 l-68 -31 -30 29 c-17 16 -40 44 -51 62
l-20 33 40 67 c22 37 54 86 71 110 28 38 34 41 53 31 71 -38 221 -50 314 -25
75 20 148 63 202 118 26 26 49 48 52 48 3 0 24 -15 46 -33z"/>
<path d="M3890 2500 c-109 -27 -193 -68 -352 -172 -234 -151 -331 -181 -593
-181 -88 1 -223 8 -300 18 -342 41 -464 38 -572 -15 -148 -73 -241 -255 -230
-450 6 -115 34 -184 104 -260 140 -151 441 -288 750 -340 169 -29 452 -25 608
9 216 46 356 104 586 241 199 119 268 169 354 255 271 270 324 609 123 790
-126 113 -295 150 -478 105z m259 -47 c31 -5 33 -7 28 -40 -13 -80 -100 -223
-136 -223 -30 0 -144 130 -190 218 -11 20 -9 23 16 33 66 25 180 30 282 12z
m-1634 -324 c50 -6 92 -12 93 -14 9 -9 -76 -152 -116 -196 -51 -57 -88 -79
-131 -79 -37 0 -69 37 -118 134 -19 38 -46 87 -59 108 -13 21 -24 40 -24 42 0
17 228 21 355 5z m1855 -100 c51 -11 51 -11 44 -42 -32 -151 -183 -343 -375
-479 -109 -77 -357 -223 -424 -250 -217 -86 -401 -122 -635 -122 -200 0 -314
18 -515 80 -109 34 -111 35 -89 70 91 141 268 325 391 406 149 100 388 202
586 252 108 28 284 63 447 89 58 10 522 6 570 -4z"/>
<path d="M5320 2705 c0 -9 7 -18 16 -22 12 -4 12 -8 3 -13 -9 -6 -9 -15 0 -40
11 -34 15 -90 6 -90 -3 0 -14 6 -25 12 -15 10 -22 10 -31 1 -10 -10 -3 -21 28
-52 57 -55 89 -115 106 -196 13 -67 15 -70 42 -70 26 0 30 5 55 79 15 46 34
85 46 93 28 18 117 34 129 22 5 -5 17 -9 27 -9 56 0 -18 113 -127 195 -99 75
-275 132 -275 90z"/>
</g>
</svg>
