<?xml version="1.0" standalone="no"?>
<!DOCTYPE svg PUBLIC "-//W3C//DTD SVG 20010904//EN"
 "http://www.w3.org/TR/2001/REC-SVG-20010904/DTD/svg10.dtd">
<svg version="1.0" xmlns="http://www.w3.org/2000/svg"
 width="1024.000000pt" height="1024.000000pt" viewBox="0 0 1024.000000 1024.000000"
 preserveAspectRatio="xMidYMid meet">

<g transform="translate(0.000000,1024.000000) scale(0.100000,-0.100000)"
fill="#000000" stroke="none">
<path d="M4326 9575 c-391 -207 -717 -570 -855 -949 -66 -183 -95 -431 -71
-616 6 -52 14 -116 17 -141 l5 -45 -70 -41 -70 -40 -72 35 c-62 31 -83 36
-158 40 -99 4 -151 -12 -223 -70 -45 -36 -118 -134 -139 -186 -17 -44 -8 -130
26 -257 15 -55 27 -109 27 -120 0 -11 -19 -61 -41 -111 -22 -50 -50 -127 -62
-170 -12 -44 -25 -87 -28 -96 -6 -15 -22 -10 -122 37 -160 76 -203 88 -244 71
-43 -18 -83 -67 -97 -119 -18 -66 -6 -341 20 -461 58 -271 177 -527 352 -758
128 -169 372 -391 522 -476 69 -38 78 -41 202 -51 72 -6 221 -14 332 -18 l202
-6 -47 -25 c-165 -87 -402 -277 -558 -446 l-81 -88 -70 109 c-39 59 -121 196
-181 303 -168 295 -156 277 -199 289 -90 26 -184 33 -367 28 -250 -6 -386 -36
-556 -122 -328 -165 -593 -545 -689 -988 -38 -173 -51 -425 -26 -489 12 -31
43 -21 64 20 36 70 137 197 192 241 69 55 168 105 240 121 33 7 94 11 150 8
78 -4 105 -10 161 -36 85 -39 165 -113 225 -209 25 -40 49 -73 53 -73 5 0 31
29 58 64 114 145 220 196 406 196 67 0 178 -20 194 -35 2 -2 -12 -43 -31 -92
-85 -213 -98 -467 -41 -803 18 -111 51 -243 113 -463 88 -310 87 -299 56 -569
-14 -128 -38 -323 -53 -432 l-27 -199 -83 -27 c-147 -49 -263 -136 -345 -257
-57 -83 -75 -147 -61 -202 l11 -40 -36 -5 c-20 -3 -94 -10 -166 -16 -293 -25
-534 -64 -550 -90 -9 -14 25 -28 96 -40 95 -16 501 -47 764 -60 127 -6 318
-15 425 -20 107 -6 312 -13 455 -16 143 -3 350 -10 460 -15 110 -6 596 -13
1080 -16 964 -6 1206 -2 2530 47 664 25 1270 70 1325 100 11 6 20 15 20 20 0
35 -398 72 -1250 115 -168 9 -309 17 -314 19 -5 1 42 15 105 31 356 88 605
224 811 443 374 397 507 921 401 1579 l-16 101 41 50 c23 27 84 79 137 116 66
48 95 74 95 88 0 26 -54 75 -135 123 -36 21 -65 41 -65 46 0 4 -7 84 -16 176
-21 228 -29 239 -140 183 -128 -63 -243 -182 -304 -312 -36 -77 -35 -76 -120
-112 -86 -36 -130 -71 -130 -101 0 -13 21 -48 49 -82 67 -80 142 -195 139
-211 -2 -8 -34 -24 -73 -36 -38 -13 -85 -30 -102 -40 -49 -25 -48 -35 19 -179
28 -59 49 -108 47 -110 -2 -2 -44 -20 -92 -41 -48 -22 -97 -50 -107 -63 -23
-29 -20 -49 21 -173 33 -96 36 -125 14 -134 -10 -3 -26 11 -48 47 -47 72 -105
140 -133 155 -31 16 -39 12 -178 -95 -59 -45 -112 -81 -116 -78 -4 3 -11 22
-15 42 -11 59 -74 246 -90 267 -13 17 -28 18 -170 17 -134 -2 -155 0 -155 14
0 25 -50 224 -66 266 -19 47 -38 54 -189 70 l-110 12 -65 57 c-83 72 -221 182
-433 346 -93 71 -178 136 -190 145 -20 16 -18 17 49 25 118 14 371 9 446 -9
63 -15 98 -15 98 2 0 12 81 143 124 200 78 104 229 208 355 245 97 28 258 40
384 27 192 -20 336 -57 514 -132 117 -50 122 -48 138 45 18 109 107 221 218
276 164 80 430 75 628 -13 147 -65 289 -198 409 -382 62 -95 78 -115 98 -115
13 0 14 17 9 113 -25 473 -350 1101 -747 1445 -209 180 -450 307 -705 371
-226 57 -604 66 -875 22 -257 -42 -531 -116 -549 -149 -5 -9 -36 -89 -69 -177
-118 -315 -280 -669 -422 -915 -124 -217 -132 -228 -183 -235 -112 -15 -235
-25 -377 -31 l-155 -6 -50 52 -50 52 123 -7 c110 -6 126 -5 143 11 10 9 19 25
19 34 0 10 -27 125 -59 256 -33 131 -58 241 -55 243 2 3 61 -8 132 -22 141
-30 185 -33 199 -14 6 6 15 154 22 327 6 173 16 352 22 397 l11 82 42 5 c22 3
124 7 226 10 192 6 431 28 488 47 22 7 34 19 38 36 18 71 -62 456 -144 693
-38 110 -54 151 -100 267 l-21 52 41 53 c60 75 218 238 317 325 116 102 184
144 436 276 233 121 291 153 389 219 446 301 750 836 795 1398 23 278 -29 630
-102 698 -39 37 -71 38 -140 4 -107 -53 -193 -148 -402 -447 -238 -339 -456
-599 -616 -734 -83 -70 -205 -115 -700 -255 -146 -42 -274 -78 -283 -82 -13
-5 -16 0 -16 28 0 48 43 266 79 402 38 140 38 161 7 181 -29 19 -232 22 -330
5 -144 -26 -319 -87 -428 -151 l-47 -28 -7 67 c-8 81 2 392 16 482 5 36 17
105 26 154 l17 89 -22 19 c-26 21 -42 18 -146 -19 -212 -78 -459 -240 -590
-387 l-54 -61 -1 73 c0 115 38 457 65 575 23 104 23 134 1 149 -19 13 -32 9
-100 -27z m3597 -192 c15 -34 40 -203 32 -212 -2 -1 -14 7 -27 19 -27 27 -135
80 -161 80 -15 0 -13 7 15 46 38 53 93 104 112 104 7 0 20 -17 29 -37z m-3710
-198 c-34 -195 -39 -534 -10 -680 20 -102 51 -205 75 -250 l16 -30 8 65 c12
104 60 251 109 332 53 88 156 199 263 284 90 71 117 77 39 9 -62 -55 -167
-179 -218 -259 -36 -57 -109 -206 -100 -206 2 0 27 35 56 78 122 182 331 405
469 501 58 41 63 43 57 20 -16 -62 -37 -284 -37 -384 0 -145 26 -359 53 -449
13 -39 25 -71 28 -71 3 0 26 25 50 55 25 30 72 77 105 103 77 62 237 141 342
168 87 22 124 22 50 0 -55 -17 -173 -79 -256 -136 -72 -48 -148 -113 -141
-119 2 -2 56 28 119 66 206 123 368 200 448 212 17 2 32 4 32 3 0 -1 -15 -59
-34 -129 -19 -70 -44 -192 -57 -272 l-23 -145 -75 -26 c-42 -15 -113 -44 -158
-65 -76 -36 -85 -38 -110 -25 -143 70 -359 134 -543 161 -125 18 -364 15 -490
-6 -89 -15 -247 -55 -317 -81 -32 -11 -65 -23 -73 -25 -11 -4 -24 17 -48 78
-32 80 -33 81 -28 35 3 -26 14 -65 25 -87 l19 -41 -98 -49 c-54 -27 -101 -54
-105 -60 -15 -24 -23 -4 -43 98 -44 222 -47 405 -12 592 22 118 82 272 153
394 39 67 135 206 143 206 2 0 -13 -33 -35 -72 -56 -105 -107 -249 -126 -356
-18 -95 -15 -135 4 -64 16 59 104 268 157 374 61 121 104 188 162 250 46 51
173 160 178 155 2 -1 -9 -70 -23 -152z m3591 8 c29 -11 69 -38 102 -70 53 -51
54 -52 54 -110 0 -33 -3 -62 -6 -66 -3 -3 -26 10 -51 29 -64 49 -114 73 -194
93 -39 10 -70 21 -71 25 -1 4 14 32 32 62 37 62 52 66 134 37z m-93 -189 c84
-25 141 -58 187 -108 46 -50 49 -63 30 -161 l-11 -63 -54 44 c-88 72 -193 114
-320 129 -35 4 -63 10 -63 14 0 8 73 116 98 144 19 21 62 22 133 1z m-47 -253
c33 -12 79 -32 102 -46 53 -31 114 -101 114 -131 0 -27 -48 -165 -85 -247
l-27 -58 -21 43 c-28 57 -112 137 -184 176 -65 34 -189 72 -243 73 -32 0 -89
17 -64 18 6 1 47 47 90 102 l79 102 90 -6 c51 -3 116 -15 149 -26z m-262 -272
c161 -35 307 -164 308 -274 0 -50 -76 -190 -155 -287 l-22 -26 -13 41 c-22 75
-51 119 -125 193 -84 82 -196 145 -296 166 -32 6 -59 15 -59 19 0 3 36 45 81
93 l81 86 73 0 c41 0 98 -5 127 -11z m-322 -250 c73 -16 201 -84 261 -137 40
-37 64 -69 87 -120 33 -71 50 -158 35 -178 -4 -6 -42 -39 -83 -73 l-75 -62
-21 69 c-11 38 -28 80 -38 93 -16 23 -17 19 -14 -94 l3 -119 -114 -70 c-62
-38 -114 -68 -115 -66 -1 2 -10 44 -19 93 -25 139 -89 257 -197 365 -47 47
-106 97 -133 110 -26 14 -46 29 -44 34 6 17 152 65 201 65 57 1 206 -46 286
-91 l55 -30 -54 55 c-57 59 -152 117 -192 117 l-24 1 28 24 c31 28 87 33 167
14z m-487 -236 c81 -43 187 -138 241 -216 51 -74 86 -177 93 -274 l6 -81 -74
-37 c-40 -21 -113 -59 -161 -86 -49 -27 -90 -49 -93 -49 -3 0 -5 24 -5 53 0
215 -153 472 -363 612 -31 21 -56 40 -53 42 9 9 274 72 305 73 20 0 62 -15
104 -37z m-423 -126 c102 -57 233 -188 282 -282 62 -120 107 -333 80 -381 -9
-16 -12 -10 -18 34 -9 74 -24 75 -24 1 0 -69 8 -60 -137 -174 l-83 -65 0 45
c0 66 -28 230 -52 300 -57 170 -144 314 -264 433 -45 46 -77 85 -71 87 67 24
185 53 197 49 8 -3 49 -24 90 -47z m-1445 8 c410 -58 741 -257 964 -579 101
-146 200 -383 214 -509 6 -64 -6 -48 -23 27 -28 134 -147 380 -238 496 -45 57
-72 84 -72 71 0 -6 6 -14 13 -18 77 -46 139 -535 108 -845 -16 -162 -61 -358
-81 -358 -11 0 -21 30 -14 41 3 5 -2 19 -10 31 -18 26 -21 17 -6 -15 10 -21
10 -21 -2 -2 -20 31 -129 137 -135 131 -3 -3 11 -22 30 -43 47 -49 107 -133
82 -113 -17 14 -18 13 -12 -3 5 -12 3 -16 -6 -12 -6 4 -4 0 7 -9 10 -8 24 -27
32 -41 8 -15 -32 17 -90 72 -68 64 -99 101 -92 106 7 6 4 7 -7 3 -12 -4 -35 5
-62 24 -47 32 -152 82 -196 93 -95 24 -165 26 -259 7 -52 -10 -108 -23 -123
-29 -23 -9 -18 -2 25 38 114 104 160 209 159 363 0 139 -32 248 -98 336 -13
17 -22 32 -19 32 39 0 419 -151 432 -172 3 -5 0 -17 -7 -26 -11 -13 -9 -13 8
2 l22 18 -31 47 c-77 112 -212 212 -343 254 -57 18 -91 22 -185 21 -123 -2
-102 3 -520 -112 -222 -61 -301 -78 -402 -88 -109 -10 -143 -1 -173 44 -40 62
-66 156 -66 240 0 41 -4 71 -8 66 -5 -5 -21 -54 -36 -109 -26 -92 -27 -104
-16 -155 7 -30 14 -66 17 -79 6 -29 42 -100 59 -118 7 -7 15 -17 17 -22 5 -13
119 -91 134 -91 7 0 18 8 24 18 11 16 11 16 6 -1 -32 -101 -40 -152 -40 -242
1 -98 2 -106 49 -219 8 -17 7 -18 -16 -3 -38 24 -128 47 -187 47 l-55 0 -97
94 c-118 114 -166 134 -244 101 -17 -7 -16 -4 6 26 54 71 81 147 123 344 42
198 108 411 124 401 4 -3 8 5 8 16 2 20 2 20 -12 2 -139 -184 -185 -234 -217
-234 -9 0 -36 24 -59 53 -144 174 -181 207 -251 228 -21 6 -30 4 -38 -9 -5 -9
-10 -12 -10 -6 0 19 54 87 106 133 49 43 49 43 112 38 80 -6 188 -57 263 -125
32 -28 49 -39 44 -27 -4 11 -10 36 -13 56 -4 35 -2 37 52 68 31 17 59 31 63
31 5 0 23 -29 41 -64 56 -108 50 -106 114 -54 82 67 133 100 238 156 267 143
580 199 875 157z m1096 -84 c119 -79 195 -172 270 -326 67 -137 109 -313 109
-458 l0 -69 -67 -74 -66 -74 -33 102 c-80 246 -251 527 -426 701 -60 59 -113
107 -118 107 -6 0 -10 4 -10 9 0 11 73 42 180 76 47 15 90 28 95 30 18 6 21 5
66 -24z m-2962 -397 c0 11 3 17 6 14 4 -3 3 -30 -1 -59 -6 -45 -9 -50 -15 -29
-4 14 -7 45 -7 70 0 40 1 42 8 15 5 -18 8 -23 9 -11z m80 -273 c-47 -92 -62
-170 -47 -251 11 -61 30 -104 61 -137 11 -13 17 -26 14 -29 -7 -7 -164 12
-192 22 -18 7 -18 21 0 108 18 86 79 211 145 299 29 37 53 67 55 67 2 0 -14
-36 -36 -79z m1815 -54 c99 -129 119 -343 45 -488 -36 -73 -134 -172 -208
-212 -135 -74 -467 -77 -678 -6 -91 30 -108 49 -123 139 -10 57 -10 89 -1 144
7 39 16 75 20 79 5 5 20 -12 35 -36 30 -53 106 -111 178 -139 28 -10 88 -22
132 -25 146 -10 278 39 381 142 102 102 155 231 155 379 0 73 1 76 20 66 10
-6 30 -25 44 -43z m-444 -12 c0 -57 -57 -120 -131 -144 -38 -12 -63 -8 -91 17
-48 41 -2 93 112 126 109 31 110 31 110 1z m-1122 -43 c5 -37 -24 -74 -56 -70
-37 4 -40 34 -6 69 32 34 58 34 62 1z m-799 -258 c201 -97 429 -168 577 -181
72 -6 72 -6 63 -30 -5 -13 -9 -59 -9 -101 0 -89 14 -125 24 -65 16 85 85 190
147 223 23 13 86 -20 159 -85 90 -78 282 -227 287 -222 2 3 -10 26 -26 53 -33
51 -39 74 -18 74 24 0 103 -29 182 -65 296 -137 476 -150 850 -61 316 75 379
79 536 30 168 -53 352 -221 434 -395 29 -63 31 -82 10 -99 -10 -8 -15 -9 -15
-1 0 38 -204 261 -327 357 -156 122 -253 157 -358 130 l-60 -16 48 5 c27 3 69
0 95 -6 67 -15 234 -97 226 -111 -4 -7 -3 -8 4 -4 16 9 134 -72 126 -86 -4 -6
-3 -8 3 -5 6 4 36 -20 67 -53 32 -33 54 -60 50 -60 -4 0 -1 -6 8 -12 26 -21
105 -123 112 -145 4 -13 -1 -26 -15 -39 -12 -10 -24 -18 -28 -17 -3 0 -5 -3
-4 -7 8 -29 -198 -205 -299 -256 -48 -24 -81 -33 -41 -11 12 7 22 16 22 22 0
5 5 11 12 14 7 2 9 -1 4 -9 -5 -9 -4 -11 4 -6 6 4 9 11 6 16 -3 4 0 10 7 12 7
3 5 7 -6 11 -11 5 -15 3 -10 -5 5 -7 2 -9 -8 -5 -9 3 -20 1 -25 -4 -32 -32
-432 -166 -633 -213 -286 -66 -468 -84 -670 -67 -179 16 -235 33 -480 150
-126 60 -178 91 -403 242 -94 65 -179 120 -187 123 -21 8 15 2 160 -27 223
-45 295 -52 530 -52 256 1 376 15 590 70 152 38 271 76 409 129 52 20 101 34
108 31 8 -2 12 -1 9 4 -3 4 27 21 67 36 40 16 99 39 131 52 72 28 98 28 203 3
112 -27 153 -45 186 -83 l29 -32 -28 54 c-16 29 -47 69 -69 88 -85 75 -234
120 -332 102 -68 -13 -275 -121 -260 -135 3 -3 33 4 66 17 103 37 78 14 -36
-34 -328 -139 -660 -215 -973 -224 -318 -9 -586 25 -846 108 -152 49 -326 129
-348 161 -34 48 -126 370 -125 438 0 23 2 21 20 -12 19 -37 39 -50 39 -25 0
48 -41 230 -59 265 -12 24 -21 46 -18 48 5 5 40 -34 44 -49 1 -7 9 -43 18 -82
22 -99 25 -101 18 -10 l-6 79 26 -17 c41 -26 32 -6 -8 22 -35 24 -103 101 -89
101 4 0 50 -21 103 -46z m3335 -203 c-4 -42 -9 -67 -12 -57 -2 11 -1 53 4 95
4 42 9 67 12 57 2 -11 1 -53 -4 -95z m23 17 c-2 -18 -4 -4 -4 32 0 36 2 50 4
33 2 -18 2 -48 0 -65z m308 -330 c56 -119 127 -332 158 -473 22 -99 23 -111 8
-117 -21 -9 -385 -10 -473 -2 l-67 7 34 61 c18 34 48 97 65 141 33 84 220 475
227 475 2 0 24 -42 48 -92z m-3215 -773 c13 -14 21 -25 18 -25 -2 0 -15 11
-28 25 -13 14 -21 25 -18 25 2 0 15 -11 28 -25z m2310 -10 c0 -2 -6 -5 -13 -8
-8 -3 -14 1 -14 8 0 7 6 11 14 8 7 -3 13 -6 13 -8z m2302 -5 c679 -65 1207
-501 1498 -1241 11 -27 18 -49 16 -49 -2 0 -15 18 -30 40 -30 45 -130 162
-243 283 -40 43 -70 84 -67 89 4 7 2 8 -4 4 -7 -4 -40 19 -79 56 -38 35 -89
81 -115 102 -26 21 -45 43 -41 49 3 6 1 7 -5 3 -6 -3 -55 24 -109 62 -253 177
-497 283 -798 348 -119 26 -148 28 -350 28 -200 1 -257 -4 -398 -31 -28 -5
-28 -5 -8 -20 12 -8 19 -18 16 -23 -3 -5 0 -12 6 -16 8 -4 9 -3 5 4 -13 22 3
13 116 -65 166 -112 214 -151 309 -249 162 -168 291 -350 414 -587 72 -138 94
-189 58 -137 -58 87 -363 399 -616 630 -115 106 -164 156 -158 164 6 7 6 17 0
26 -8 12 -9 11 -7 -5 6 -38 -21 -20 -130 87 l-108 108 -23 -40 c-12 -22 -27
-38 -32 -35 -5 3 -6 0 -3 -8 5 -15 -144 -319 -306 -622 -50 -93 -136 -260
-190 -370 l-99 -200 -211 -108 -210 -109 -118 96 c-64 53 -135 111 -157 130
-40 34 -40 34 -15 39 14 3 142 15 285 27 143 12 261 23 261 23 11 14 165 296
235 432 166 318 318 650 400 873 l34 93 65 19 c139 41 409 86 598 99 160 12
197 12 314 1z m-4531 -67 c13 -16 12 -17 -3 -4 -10 7 -18 15 -18 17 0 8 8 3
21 -13z m2478 -163 c-6 -85 -7 -217 -3 -294 l6 -139 -28 7 c-28 7 -274 105
-284 113 -8 7 68 146 128 237 49 74 183 238 189 232 1 -1 -2 -71 -8 -156z
m-2398 93 c13 -16 12 -17 -3 -4 -17 13 -22 21 -14 21 2 0 10 -8 17 -17z m2094
-73 c-3 -5 -14 -10 -23 -10 -15 0 -15 2 -2 10 20 13 33 13 25 0z m-728 -16
c-3 -3 -12 -4 -19 -1 -8 3 -5 6 6 6 11 1 17 -2 13 -5z m677 -54 c-10 -16 -20
-28 -22 -26 -4 5 28 56 35 56 2 0 -4 -13 -13 -30z m-1016 13 c-10 -2 -26 -2
-35 0 -10 3 -2 5 17 5 19 0 27 -2 18 -5z m595 -127 c-24 -50 -43 -76 -54 -76
-10 0 -79 -16 -156 -36 -76 -19 -210 -53 -297 -75 l-160 -40 -38 38 c-21 20
-38 40 -38 43 0 7 159 92 224 120 l49 20 -18 -27 c-10 -16 -29 -43 -42 -60
-13 -18 -19 -33 -12 -33 13 0 73 63 96 101 19 32 45 38 289 74 98 15 181 29
183 31 16 15 7 -15 -26 -80z m138 41 c-10 -9 -11 -8 -5 6 3 10 9 15 12 12 3
-3 0 -11 -7 -18z m-2175 -74 c78 -177 255 -505 346 -641 l49 -72 -24 -35 -24
-35 -50 63 c-64 80 -171 235 -249 359 l-60 97 -56 -78 c-128 -180 -251 -402
-344 -621 -30 -69 -54 -117 -54 -107 0 27 38 208 61 294 39 142 136 353 224
488 90 139 100 168 68 198 -30 26 -67 29 -164 12 -314 -53 -574 -191 -814
-429 -67 -67 -140 -143 -163 -171 -23 -27 -41 -47 -42 -43 0 4 6 13 14 21 14
14 11 57 -3 57 -12 0 -64 -118 -58 -132 3 -8 -10 -39 -29 -69 -18 -30 -34 -51
-34 -47 0 20 69 197 112 283 134 268 320 467 522 559 98 45 221 84 301 95 33
5 147 9 253 10 l193 1 25 -57z m2164 49 c0 -5 -7 -17 -15 -28 -14 -18 -14 -17
-4 9 12 27 19 34 19 19z m220 -22 c-6 -11 -13 -20 -16 -20 -2 0 0 9 6 20 6 11
13 20 16 20 2 0 0 -9 -6 -20z m-77 -26 c9 -4 17 -13 17 -22 0 -12 4 -12 22 4
20 17 19 15 -5 -28 -56 -97 -115 -226 -146 -316 -30 -88 -91 -322 -91 -348 0
-7 18 -33 39 -59 22 -26 42 -59 46 -72 10 -40 93 -209 109 -222 18 -15 22 -36
4 -25 -7 5 -8 3 -3 -5 4 -8 11 -9 17 -3 6 6 -2 38 -22 88 -17 44 -34 86 -37
94 -3 8 28 -21 68 -64 41 -44 74 -88 74 -97 0 -17 73 -112 144 -188 18 -20 39
-45 47 -55 7 -11 16 -18 18 -15 3 3 -23 36 -57 75 -126 142 -160 186 -140 183
4 -1 129 -125 276 -275 148 -149 270 -271 271 -271 2 1 58 -47 126 -107 74
-66 128 -122 136 -142 28 -66 11 -195 -36 -286 -11 -22 -19 -43 -16 -45 7 -7
79 75 99 114 24 45 32 119 18 168 -6 21 -9 40 -8 42 7 6 274 -204 417 -326
251 -217 350 -325 447 -489 90 -153 157 -389 151 -531 l-3 -66 -11 65 -11 65
-2 -65 -1 -65 -68 -65 c-73 -70 -171 -128 -183 -109 -4 7 -12 8 -18 5 -6 -4
-11 -2 -11 3 0 6 5 11 10 11 6 0 10 19 9 43 l-1 42 -9 -32 c-7 -24 -24 -41
-70 -69 -164 -99 -413 -97 -618 5 -44 23 -81 43 -81 45 0 7 53 -10 88 -28 17
-9 37 -16 44 -16 23 1 -35 39 -83 55 -73 25 -167 138 -199 240 -18 57 -28 64
-20 13 13 -77 32 -132 61 -176 16 -24 29 -45 29 -48 0 -9 -43 35 -62 63 l-19
28 5 -30 c9 -50 -34 85 -50 155 -29 135 -10 263 60 414 99 213 214 313 420
366 44 11 110 20 148 20 38 0 67 4 64 9 -3 4 -18 7 -33 5 -16 -2 -20 -1 -10 2
9 3 17 14 17 25 0 20 -6 20 -189 17 -104 -2 -188 0 -186 3 2 3 22 12 45 19 23
7 44 18 47 23 4 7 -1 7 -13 2 -24 -10 -166 -36 -171 -31 -2 2 41 16 96 31 103
29 129 49 42 33 -46 -8 -107 -28 -301 -97 -47 -17 -96 -31 -108 -31 -38 0
-125 97 -172 192 l-41 83 -6 183 c-3 101 -9 179 -13 175 -4 -4 -19 -71 -33
-148 -57 -311 -71 -520 -42 -658 8 -40 37 -139 65 -222 27 -82 50 -158 50
-168 0 -10 -9 -51 -20 -90 -26 -92 -135 -544 -160 -662 -25 -116 -70 -380 -71
-414 0 -23 -2 -21 -17 14 -9 23 -27 55 -39 72 -26 35 -29 48 -10 37 7 -4 9 -3
4 2 -5 5 -14 9 -20 9 -7 1 -11 7 -9 15 2 8 1 12 -3 8 -4 -4 -29 11 -56 32 -58
46 -136 77 -221 87 -58 8 -62 10 -69 38 -10 42 -29 484 -30 701 0 206 -7 263
-37 304 -24 31 -28 45 -12 35 6 -3 7 1 3 10 -4 13 -8 14 -13 4 -5 -8 -28 27
-63 97 -108 216 -192 459 -244 703 -25 115 -27 146 -28 356 0 185 4 249 19
328 l19 98 66 53 c36 29 92 70 125 91 32 22 53 41 47 43 -16 5 -131 -49 -179
-86 l-42 -32 6 27 c24 96 113 344 178 498 78 182 226 488 234 481 2 -2 -6 -22
-17 -44 l-21 -41 98 74 c53 41 102 72 107 69 6 -2 18 -7 28 -10z m-397 -235
c-35 -74 -79 -168 -98 -209 -34 -75 -35 -75 -85 -87 -28 -6 -84 -28 -124 -47
-87 -42 -71 -41 64 7 80 28 97 31 95 18 -3 -18 -118 -60 -403 -147 -325 -100
-510 -156 -525 -161 -11 -3 -32 27 -72 100 -86 156 -88 138 38 268 113 116
216 201 345 286 l76 50 62 -50 63 -51 57 12 c68 14 280 73 416 115 120 38 149
45 153 37 1 -4 -26 -67 -62 -141z m2198 60 c-3 -5 1 -9 8 -9 14 0 104 -157 95
-166 -2 -3 -22 30 -44 73 -22 43 -45 77 -51 76 -9 -2 -24 24 -27 47 0 3 -4 12
-8 20 -5 8 1 4 12 -9 12 -12 18 -27 15 -32z m825 -15 c161 -45 328 -148 519
-322 149 -136 111 -68 -59 105 -56 57 -106 103 -110 103 -5 0 -9 3 -9 8 0 4
-12 15 -27 25 l-28 18 30 -6 c80 -16 444 -223 430 -245 -3 -5 0 -12 6 -16 8
-4 9 -3 5 4 -13 22 7 12 61 -29 45 -36 51 -44 41 -58 -10 -13 -10 -14 1 -4 11
10 23 4 59 -27 50 -45 75 -54 39 -14 -14 14 -35 45 -47 68 l-23 41 34 -30 c18
-16 67 -61 107 -100 40 -38 77 -71 82 -73 6 -2 10 -8 10 -13 0 -6 -7 -6 -17 0
-83 43 -345 59 -474 28 -151 -36 -267 -103 -329 -188 -16 -23 -30 -37 -30 -31
0 7 -21 59 -46 117 -58 132 -192 359 -279 471 -36 47 -63 90 -59 95 3 6 12 2
21 -10 8 -12 18 -19 23 -16 5 3 19 1 30 -5 16 -8 20 -8 20 4 0 19 -29 29 -45
16 -9 -8 -15 -8 -20 0 -3 5 2 10 12 11 12 1 10 3 -7 8 -14 5 -29 4 -34 0 -10
-9 -56 27 -56 42 0 18 320 -124 377 -167 17 -13 35 -24 40 -24 11 0 150 -95
202 -138 22 -18 42 -29 45 -24 7 12 -89 87 -190 150 -235 144 -338 205 -386
228 l-53 25 40 -6 c22 -4 64 -13 94 -21z m-789 -89 c0 -5 -5 -3 -10 5 -5 8
-10 20 -10 25 0 6 5 3 10 -5 5 -8 10 -19 10 -25z m-1694 -63 c12 -42 42 -149
67 -236 26 -88 45 -161 43 -164 -3 -2 -64 11 -138 30 l-133 33 3 35 c8 76 118
398 131 384 3 -3 15 -40 27 -82z m1766 -117 c44 -120 82 -239 80 -248 -2 -5 2
-6 6 -3 5 3 1 36 -10 73 -35 119 -67 247 -64 251 6 5 63 -146 121 -318 l55
-165 -6 73 c-4 53 -2 72 7 70 11 -3 20 17 67 141 9 24 22 46 29 48 6 2 44 -24
84 -58 84 -73 445 -433 458 -458 8 -14 -3 -12 -72 11 -202 67 -335 89 -529 89
l-118 -1 0 38 c-1 79 -53 273 -130 482 -21 58 -41 114 -44 125 -12 41 38 -73
66 -150z m-4752 62 c0 -2 -37 -28 -82 -58 -46 -29 -123 -94 -173 -144 -106
-106 -200 -231 -182 -241 7 -4 9 -4 6 0 -11 12 215 230 294 284 40 28 98 62
129 75 l55 25 -8 -27 c-27 -87 -98 -504 -92 -542 3 -19 1 -19 -29 4 -99 75
-232 117 -368 117 -121 0 -211 -26 -315 -90 l-37 -23 12 24 c51 98 211 288
329 393 84 73 100 76 49 10 -61 -82 -102 -149 -132 -217 -38 -85 -32 -88 23
-11 66 95 211 246 286 299 75 54 235 137 235 122z m91 -93 c-9 -28 -9 -29 -10
-3 -1 14 2 29 6 32 11 12 13 2 4 -29z m4500 -16 c25 -28 87 -155 92 -185 2
-12 7 -26 11 -30 11 -11 -3 53 -20 96 -8 19 -12 36 -9 39 3 3 5 0 5 -7 0 -7 5
-9 12 -5 7 5 9 2 5 -9 -3 -9 -2 -17 2 -19 14 -5 138 -325 129 -333 -2 -1 -41
-15 -88 -30 -159 -51 -280 -131 -379 -250 -19 -22 -31 -32 -27 -22 3 10 26
109 51 220 55 246 73 312 75 277 1 -15 4 -19 7 -10 29 84 107 290 110 290 3 0
14 -10 24 -22z m326 -70 c-3 -8 -6 -5 -6 6 -1 11 2 17 5 13 3 -3 4 -12 1 -19z
m-587 -63 c-6 -30 -8 -33 -9 -13 -1 25 8 62 14 56 2 -2 -1 -21 -5 -43z m-4273
13 c-3 -8 -6 -5 -6 6 -1 11 2 17 5 13 3 -3 4 -12 1 -19z m363 -28 c0 -5 -5
-10 -11 -10 -5 0 -7 5 -4 10 3 6 8 10 11 10 2 0 4 -4 4 -10z m1787 -112 c-63
-160 -90 -245 -128 -400 -31 -131 -33 -136 -63 -146 -38 -14 -189 -113 -182
-119 3 -3 20 4 38 15 18 11 63 36 101 56 60 32 67 34 67 17 0 -29 -7 -33 -440
-271 -189 -104 -371 -206 -446 -251 l-31 -19 -76 93 c-87 105 -166 214 -221
304 -45 73 -45 76 21 238 74 184 256 512 307 554 11 9 23 -4 56 -61 56 -96
107 -165 125 -172 26 -10 745 209 880 268 17 7 31 12 33 11 2 -2 -17 -54 -41
-117z m2273 92 c0 -5 -2 -10 -4 -10 -3 0 -8 5 -11 10 -3 6 -1 10 4 10 6 0 11
-4 11 -10z m-4037 -150 c43 -151 48 -134 -46 -149 -45 -7 -106 -20 -134 -30
-29 -10 -53 -15 -53 -12 1 9 59 117 60 110 0 -4 -7 -23 -15 -43 -24 -56 -1
-42 26 16 24 52 81 141 106 166 7 7 13 21 13 30 0 34 20 -6 43 -88z m3874 78
c-3 -8 -6 -5 -6 6 -1 11 2 17 5 13 3 -3 4 -12 1 -19z m-4290 -10 c-3 -8 -6 -5
-6 6 -1 11 2 17 5 13 3 -3 4 -12 1 -19z m609 -45 c71 -94 104 -149 104 -173 0
-11 5 -20 10 -20 6 0 10 -4 10 -9 0 -4 -43 2 -96 15 -89 22 -124 34 -96 34 8
0 10 30 5 110 -3 64 -2 110 3 110 5 0 32 -30 60 -67z m-619 -5 c-3 -8 -6 -5
-6 6 -1 11 2 17 5 13 3 -3 4 -12 1 -19z m717 -14 c3 -8 2 -12 -4 -9 -6 3 -10
10 -10 16 0 14 7 11 14 -7z m-727 -46 c-3 -7 -5 -2 -5 12 0 14 2 19 5 13 2 -7
2 -19 0 -25z m767 -24 c3 -8 2 -12 -4 -9 -6 3 -10 10 -10 16 0 14 7 11 14 -7z
m-777 -31 c-3 -10 -5 -4 -5 12 0 17 2 24 5 18 2 -7 2 -21 0 -30z m-9 -108 c0
-25 -4 -42 -8 -38 -7 8 -1 83 6 83 2 0 3 -20 2 -45z m6318 -360 c-6 -17 9
-168 26 -243 13 -59 13 -59 86 -97 l53 -27 -68 -40 c-37 -22 -73 -44 -80 -49
-8 -8 -16 -2 -28 21 -9 18 -15 34 -12 36 2 2 10 -7 17 -21 7 -14 17 -25 22
-25 21 0 18 35 -6 83 -15 29 -21 43 -14 33 7 -10 23 -31 36 -45 20 -22 22 -23
13 -4 -6 12 -11 32 -11 45 0 16 -3 19 -9 10 -6 -10 -10 -4 -14 18 -4 17 -11
29 -16 26 -4 -3 -17 4 -27 15 -20 23 -24 69 -11 149 11 73 -11 23 -36 -82 -13
-50 -28 -93 -35 -96 -9 -3 -10 3 -2 23 6 15 6 24 1 20 -6 -3 -7 9 -4 30 7 46
-9 45 -37 -2 -12 -21 -31 -43 -41 -51 -23 -16 -26 -44 -4 -36 8 4 15 2 15 -4
0 -6 -5 -12 -12 -14 -7 -3 -8 -10 -4 -17 6 -9 16 0 33 29 14 23 22 44 18 48
-3 3 -10 0 -15 -8 -6 -8 -10 -10 -10 -4 0 5 7 19 15 30 16 21 15 22 19 -36 1
-8 5 -21 9 -27 5 -7 4 -13 -2 -13 -5 0 -11 6 -14 13 -2 6 -14 -9 -26 -34 -28
-60 -58 -87 -114 -104 -45 -13 -45 -13 -76 19 l-32 33 48 18 c77 28 89 39 131
127 45 93 124 202 174 242 37 29 53 33 44 11z m-2139 -21 c-3 -3 -12 -4 -19
-1 -8 3 -5 6 6 6 11 1 17 -2 13 -5z m-2141 -252 c0 -216 8 -286 50 -465 l26
-108 -51 -61 c-28 -34 -48 -64 -45 -67 2 -3 26 16 52 42 26 26 50 47 54 47 3
0 11 -14 17 -32 10 -29 9 -34 -21 -66 -46 -48 -255 -214 -461 -367 l-78 -57
-67 44 c-202 136 -465 380 -558 519 -101 150 -160 348 -170 564 l-6 120 42
-64 c106 -163 268 -341 310 -341 12 0 72 29 133 64 62 35 236 132 387 216 151
84 298 168 325 186 28 18 52 33 55 33 3 1 5 -92 6 -207z m4154 53 c0 -8 -4
-15 -10 -15 -5 0 -7 7 -4 15 4 8 8 15 10 15 2 0 4 -7 4 -15z m88 -80 c-3 -3
-9 2 -12 12 -6 14 -5 15 5 6 7 -7 10 -15 7 -18z m22 -75 c0 -13 -1 -13 -10 0
-5 8 -10 22 -10 30 0 13 1 13 10 0 5 -8 10 -22 10 -30z m-140 -9 c0 -5 -7 -12
-16 -15 -14 -5 -15 -4 -4 9 14 17 20 19 20 6z m-10 -144 c0 -5 -4 -5 -10 -2
-5 3 -10 14 -10 23 0 15 2 15 10 2 5 -8 10 -19 10 -23z m99 -139 c12 -81 20
-183 19 -226 l-1 -78 -49 53 c-55 61 -64 57 -14 -8 55 -72 52 -89 -5 -34 -57
55 -56 47 2 -30 l37 -50 -9 -89 c-10 -100 -22 -147 -76 -299 l-38 -108 -7 40
c-7 41 -40 104 -78 151 -13 15 -5 -8 18 -55 41 -83 60 -145 45 -145 -5 0 -15
16 -22 36 -16 46 -82 156 -89 150 -7 -8 88 -196 99 -196 14 0 -34 -88 -84
-155 -109 -144 -260 -251 -447 -316 -88 -31 -105 -33 -220 -34 -107 0 -132 3
-170 21 -94 44 -144 124 -155 249 -4 44 -15 117 -26 163 -23 101 -23 95 -1 84
27 -15 220 -61 297 -72 100 -14 269 -12 345 4 140 30 227 88 314 210 87 122
164 294 200 446 47 202 67 293 77 363 6 43 13 76 15 75 1 -2 12 -70 23 -150z
m-129 42 c0 -27 -21 -80 -32 -80 -5 0 -6 4 -3 10 3 5 0 7 -8 4 -9 -3 -23 9
-38 33 -32 52 -33 53 -16 53 8 0 25 9 38 20 24 19 24 19 42 -1 9 -12 17 -29
17 -39z m-60 -217 c0 -22 -49 -186 -59 -196 -8 -8 -97 110 -111 148 -5 13 -14
26 -19 30 -34 20 2 30 127 33 52 2 62 -1 62 -15z m-1465 -69 c3 -20 5 -38 2
-40 -2 -2 -21 14 -42 36 l-39 40 36 0 c33 0 36 -3 43 -36z m-675 -19 c-132
-30 -250 -92 -320 -168 -39 -41 -40 -42 -57 -23 -12 13 -13 16 -2 8 13 -9 22
-4 55 29 82 85 252 168 339 167 39 0 39 0 -15 -13z m-500 -90 c19 -19 32 -35
29 -35 -3 0 -20 16 -39 35 -19 19 -32 35 -29 35 3 0 20 -16 39 -35z m-1100
-275 c19 -30 45 -70 57 -89 19 -27 23 -47 23 -105 0 -61 -3 -73 -19 -81 -11
-6 -66 -43 -122 -84 -102 -74 -102 -74 -138 -61 -84 29 -351 171 -434 231
l-38 27 37 29 c91 71 337 269 409 331 l80 68 56 -105 c30 -58 71 -131 89 -161z
m1180 52 c0 -4 -13 -33 -29 -64 l-30 -58 -39 103 c-63 161 -64 157 22 87 42
-34 76 -65 76 -68z m2460 87 c0 -35 -118 -227 -145 -236 -11 -3 -85 137 -85
161 0 8 41 27 108 50 120 40 122 40 122 25z m-930 -170 c11 -50 19 -93 17 -95
-5 -5 -75 19 -115 40 -17 9 -34 26 -38 38 -3 13 -16 36 -26 51 -11 16 -18 30
-16 32 5 5 98 23 130 24 25 1 27 -3 48 -90z m-3970 -19 c0 -5 -2 -10 -4 -10
-3 0 -8 5 -11 10 -3 6 -1 10 4 10 6 0 11 -4 11 -10z m-45 -122 c15 -46 39
-110 52 -143 14 -33 29 -71 34 -84 19 -48 18 -12 -1 74 -10 49 -18 91 -16 92
2 2 41 -36 87 -84 99 -103 165 -222 200 -363 51 -202 -16 -538 -134 -668 -16
-17 -32 -22 -67 -22 -45 0 -156 32 -216 62 -16 9 -40 19 -54 23 -23 7 -22 6 8
-19 17 -15 32 -32 32 -38 0 -6 -9 1 -21 16 -38 48 -115 30 -177 -41 -22 -25
-22 -24 2 10 30 41 23 48 -17 17 -14 -11 -30 -20 -36 -20 -6 0 -22 -17 -37
-37 -20 -30 -24 -33 -19 -13 22 75 94 169 162 211 63 39 170 4 286 -95 65 -54
109 -77 72 -36 -15 17 -16 22 -4 37 13 16 12 17 -3 4 -11 -8 -18 -9 -18 -3 0
6 -22 33 -49 61 -56 58 -54 64 10 22 47 -32 63 -33 34 -1 -28 31 -108 79 -166
100 l-54 19 3 68 c3 66 24 294 62 668 l19 180 -4 -125 c-4 -118 -3 -121 6 -50
6 41 10 84 11 95 0 12 7 4 19 -22 10 -24 20 -43 23 -43 4 0 -21 82 -48 159
-15 42 -20 71 -12 71 2 0 16 -37 31 -82z m4483 23 c17 -23 32 -47 32 -52 0 -5
-45 -9 -101 -9 -55 0 -99 4 -97 9 6 15 113 100 123 97 6 -1 25 -22 43 -45z
m722 -198 c-17 -59 -52 -151 -76 -203 l-45 -95 -19 35 c-17 33 -17 37 -2 60
56 85 116 194 139 253 14 37 28 65 31 63 2 -3 -10 -54 -28 -113z m-3802 -134
l-3 -36 -93 26 c-74 20 -90 28 -77 36 9 5 49 33 88 62 l72 51 8 -51 c4 -29 6
-68 5 -88z m3622 27 c0 -2 -8 -10 -17 -17 -16 -13 -17 -12 -4 4 13 16 21 21
21 13z m-2606 -262 c20 -50 36 -94 36 -97 0 -8 -183 -168 -186 -164 -3 3 15
66 70 247 32 104 36 114 40 109 2 -2 20 -45 40 -95z m2612 29 c9 -33 -65 -134
-184 -251 -146 -144 -140 -143 -144 -26 l-3 96 80 53 c44 29 112 83 150 118
63 59 71 64 83 49 7 -9 15 -27 18 -39z m-2406 3 c0 -8 7 -19 15 -26 8 -7 15
-20 14 -29 0 -13 -1 -14 -6 -1 -3 8 -11 22 -18 30 -17 21 -27 53 -15 45 6 -3
10 -12 10 -19z m1197 2 c-3 -8 -6 -5 -6 6 -1 11 2 17 5 13 3 -3 4 -12 1 -19z
m773 -78 c-8 -5 -19 -10 -25 -10 -5 0 -3 5 5 10 8 5 20 10 25 10 6 0 3 -5 -5
-10z m-1889 -67 c13 -16 12 -17 -3 -4 -10 7 -18 15 -18 17 0 8 8 3 21 -13z
m-2271 -40 c-11 -17 -11 -17 -6 0 3 10 6 24 7 30 0 9 2 9 5 0 3 -7 0 -20 -6
-30z m3145 7 c-14 -15 -15 -20 -4 -20 12 0 12 -2 -1 -9 -8 -6 -18 -7 -22 -5
-4 3 -8 1 -8 -3 0 -9 -72 -45 -78 -39 -5 5 14 21 73 61 59 40 64 42 40 15z
m628 13 c-13 -2 -33 -2 -45 0 -13 2 -3 4 22 4 25 0 35 -2 23 -4z m-1472 -20
c13 -16 12 -17 -3 -4 -17 13 -22 21 -14 21 2 0 10 -8 17 -17z m-201 -75 c25
-40 66 -101 93 -135 26 -35 44 -63 39 -63 -16 0 -199 57 -270 84 l-71 27 77
79 c42 43 79 79 82 79 3 1 26 -32 50 -71z m-1794 -108 c26 -33 74 -78 106
-100 53 -35 143 -70 182 -70 23 0 20 -7 -25 -58 -23 -26 -50 -63 -62 -83 l-21
-36 -215 -12 c-119 -6 -226 -11 -238 -11 -21 0 -21 1 9 78 16 42 54 158 84
257 31 99 57 186 60 194 3 8 18 -8 38 -42 19 -31 56 -84 82 -117z m-319 138
c-3 -8 -6 -5 -6 6 -1 11 2 17 5 13 3 -3 4 -12 1 -19z m2402 -47 c12 -11 12
-13 1 -7 -28 18 -70 60 -70 70 0 6 12 -2 26 -18 14 -16 34 -36 43 -45z m1811
-41 c-4 -48 -10 -96 -14 -108 -5 -15 -41 -38 -119 -76 -101 -49 -282 -114
-291 -105 -2 2 9 45 26 94 16 50 32 113 35 142 l6 52 56 11 c84 17 192 47 247
69 27 10 52 16 55 13 3 -4 3 -45 -1 -92z m-990 76 c0 -2 -8 -10 -17 -17 -16
-13 -17 -12 -4 4 13 16 21 21 21 13z m90 -16 c-6 -11 -13 -20 -16 -20 -2 0 0
9 6 20 6 11 13 20 16 20 2 0 0 -9 -6 -20z m-830 -76 c0 -2 -9 0 -20 6 -11 6
-20 13 -20 16 0 2 9 0 20 -6 11 -6 20 -13 20 -16z m784 1 c-9 -14 -18 -25 -21
-25 -5 0 5 18 20 38 17 22 18 13 1 -13z m433 15 l101 0 -13 -47 c-17 -66 -71
-201 -94 -239 -18 -29 -25 -33 -103 -43 -45 -6 -126 -16 -178 -21 -169 -17
-172 -16 -117 53 19 23 72 102 118 175 l84 134 50 -6 c28 -3 96 -6 152 -6z
m-473 -75 c-9 -14 -18 -25 -21 -25 -5 0 5 18 20 38 17 22 18 13 1 -13z m-71
-102 c-49 -71 -79 -107 -50 -60 9 15 25 39 34 55 16 27 54 72 59 72 2 0 -18
-30 -43 -67z m-3849 6 c-27 -17 -58 -39 -69 -50 -14 -13 -25 -15 -35 -9 -13 8
-12 10 3 10 9 0 17 5 17 10 0 13 -21 13 -55 0 -16 -6 -23 -15 -19 -21 4 -7 1
-10 -7 -7 -8 3 -22 -6 -32 -19 -10 -13 -25 -23 -33 -23 -8 0 -14 -5 -14 -12 0
-6 -3 -8 -7 -5 -9 10 43 63 97 97 45 29 133 58 179 59 21 1 16 -4 -25 -30z
m2692 -53 l152 -52 -37 -62 -36 -62 -147 0 c-135 0 -148 2 -148 18 1 24 19
162 26 195 4 22 10 27 22 21 10 -4 85 -30 168 -58z m-969 0 c-36 -24 -80 -55
-97 -70 -22 -18 -38 -24 -55 -20 -30 8 -75 -17 -116 -63 -19 -21 -31 -34 -27
-29 3 4 4 14 2 20 -3 7 22 37 54 68 81 77 196 134 282 137 18 1 9 -9 -43 -43z
m299 8 c121 -33 227 -201 223 -353 0 -21 -3 -19 -13 14 -31 99 -96 170 -200
221 -66 32 -70 33 -100 17 -34 -17 -151 -103 -206 -152 -39 -35 -69 -46 -99
-36 -20 6 -20 7 -4 48 9 23 22 50 29 61 7 10 10 24 8 30 -3 7 19 35 48 62 118
112 172 127 314 88z m1219 4 c-22 -11 -61 -41 -87 -65 -30 -30 -52 -44 -62
-40 -9 4 -16 11 -16 16 0 6 7 7 17 4 10 -4 14 -2 9 5 -3 6 4 18 16 26 15 11
17 16 8 16 -18 0 -100 -49 -82 -50 21 0 13 -14 -21 -33 -32 -17 -32 -17 -9 2
12 11 20 25 17 33 -6 16 68 73 121 92 21 8 59 15 84 15 l45 0 -40 -21z m313 5
c-14 -4 -9 -14 27 -59 25 -30 45 -60 45 -66 0 -6 -14 9 -31 35 -17 26 -44 58
-61 72 l-30 25 34 -1 c18 -1 25 -3 16 -6z m-132 -40 c60 -29 143 -96 185 -149
27 -35 46 -90 35 -101 -3 -4 -6 2 -6 13 0 26 -48 96 -61 89 -5 -4 -8 -1 -7 7
2 7 -3 12 -10 10 -8 -1 -11 2 -6 9 5 9 2 10 -10 6 -10 -4 -15 -3 -11 3 7 11
-45 34 -100 44 -39 6 -39 6 -15 -9 14 -8 18 -15 10 -14 -22 3 -51 -12 -44 -22
3 -5 -2 -9 -10 -9 -9 0 -34 -17 -57 -37 -25 -23 -51 -37 -70 -38 -29 -1 -38 8
-19 20 6 3 10 12 10 18 -1 7 -12 -1 -25 -18 -20 -25 -28 -28 -42 -19 -14 9
-21 8 -30 -5 -21 -27 -15 5 8 52 44 85 108 147 175 167 42 12 40 12 100 -17z
m-3599 -88 c-12 -23 -15 -25 -20 -11 -4 9 -3 15 2 12 5 -3 11 4 14 16 4 12 9
19 12 16 4 -3 0 -18 -8 -33z m1702 -65 c-22 -45 -25 -48 -25 -21 0 11 4 17 9
14 5 -3 7 0 5 8 -4 11 15 36 29 39 0 0 -8 -18 -18 -40z m87 -49 c-22 -44 -42
-78 -44 -76 -7 7 72 155 83 155 1 0 -16 -36 -39 -79z m1433 27 c-14 -49 -33
-77 -25 -38 7 38 28 92 33 86 2 -2 -1 -24 -8 -48z m-3076 7 c-3 -9 -8 -14 -10
-11 -3 3 -2 9 2 15 9 16 15 13 8 -4z m3427 0 c-7 -8 -17 -12 -23 -8 -6 4 -3 9
9 14 27 11 28 11 14 -6z m-3093 -81 c-3 -3 -12 -4 -19 -1 -8 3 -5 6 6 6 11 1
17 -2 13 -5z m1504 -17 c-10 -9 -11 -8 -5 6 3 10 9 15 12 12 3 -3 0 -11 -7
-18z m-1544 7 c-3 -3 -12 -4 -19 -1 -8 3 -5 6 6 6 11 1 17 -2 13 -5z m2610
-16 c-3 -8 -6 -5 -6 6 -1 11 2 17 5 13 3 -3 4 -12 1 -19z m40 -14 c-3 -3 -12
-4 -19 -1 -8 3 -5 6 6 6 11 1 17 -2 13 -5z"/>
<path d="M4056 8853 c-12 -13 -6 -53 9 -53 9 0 15 9 15 24 0 26 -12 40 -24 29z"/>
<path d="M4853 8760 c-11 -27 -25 -120 -19 -120 9 0 37 112 33 128 -3 13 -6
11 -14 -8z"/>
<path d="M4185 7805 c-63 -14 -239 -75 -233 -81 2 -2 28 3 58 11 30 8 82 17
115 20 33 3 107 12 164 20 58 8 106 15 108 15 2 0 3 5 3 11 0 13 -33 9 -149
-16 -103 -22 -123 -14 -26 12 89 23 58 30 -40 8z"/>
<path d="M4417 7813 c-3 -5 16 -7 41 -5 80 5 90 9 25 11 -34 0 -64 -2 -66 -6z"/>
<path d="M4587 7813 c18 -2 50 -2 70 0 21 2 7 4 -32 4 -38 0 -55 -2 -38 -4z"/>
<path d="M4329 7755 c-3 -2 -44 -9 -92 -14 -76 -9 -147 -35 -133 -49 3 -2 38
3 78 12 40 9 116 25 168 35 94 19 94 19 39 20 -31 1 -58 -1 -60 -4z"/>
<path d="M3910 7710 c-8 -5 -10 -10 -5 -10 6 0 17 5 25 10 8 5 11 10 5 10 -5
0 -17 -5 -25 -10z"/>
<path d="M5024 7698 c52 -31 226 -169 226 -179 0 -5 6 -9 13 -9 7 0 44 -28 82
-62 38 -35 65 -56 60 -48 -59 96 -75 128 -75 150 0 32 -47 68 -157 124 -85 42
-110 48 -38 8 126 -70 175 -114 175 -155 0 -17 -6 -15 -42 17 -62 52 -229 163
-258 170 -18 5 -13 0 14 -16z"/>
<path d="M4520 7681 c-194 -41 -430 -105 -535 -144 -125 -47 -356 -149 -351
-155 3 -2 24 3 48 12 24 9 99 32 168 50 69 18 197 54 285 80 224 65 308 80
460 80 127 1 132 0 199 -32 38 -17 101 -53 140 -79 87 -57 239 -202 231 -221
-2 -7 0 -10 5 -7 11 7 97 -120 132 -195 41 -87 46 -59 11 55 -53 169 -169 330
-318 443 -24 18 -26 22 -8 17 12 -3 24 -2 27 3 3 5 -9 8 -27 7 -18 -1 -43 6
-57 15 -14 10 -59 35 -100 56 -97 49 -140 51 -310 15z"/>
<path d="M4230 7690 c0 -5 6 -10 14 -10 8 0 18 5 21 10 3 6 -3 10 -14 10 -12
0 -21 -4 -21 -10z"/>
<path d="M4198 7683 c7 -3 16 -2 19 1 4 3 -2 6 -13 5 -11 0 -14 -3 -6 -6z"/>
<path d="M4967 7667 c3 -4 12 -6 21 -2 8 3 19 0 24 -7 7 -10 9 -9 5 2 -2 8
-15 15 -30 15 -14 1 -23 -3 -20 -8z"/>
<path d="M3814 7654 c-18 -14 -18 -15 4 -4 12 6 22 13 22 15 0 8 -5 6 -26 -11z"/>
<path d="M2980 7646 c0 -2 7 -7 16 -10 8 -3 12 -2 9 4 -6 10 -25 14 -25 6z"/>
<path d="M4945 7640 c-8 -13 15 -24 27 -12 6 6 4 11 -6 15 -8 3 -18 2 -21 -3z"/>
<path d="M5008 7634 c-16 -8 -28 -17 -28 -20 0 -3 5 -2 12 2 17 11 68 12 69 2
1 -4 2 -12 3 -17 0 -5 5 -13 10 -18 5 -5 6 -3 2 5 -11 19 9 14 27 -6 10 -10
14 -22 10 -26 -4 -4 -1 -5 7 -1 10 3 27 -11 50 -40 69 -90 83 -106 87 -101 9
8 -36 73 -68 101 -17 14 -28 25 -24 25 3 0 -22 25 -56 55 -34 30 -64 55 -68
55 -3 -1 -18 -8 -33 -16z"/>
<path d="M3020 7626 c0 -3 9 -10 20 -16 11 -6 20 -8 20 -6 0 3 -9 10 -20 16
-11 6 -20 8 -20 6z"/>
<path d="M3749 7613 c-13 -16 -12 -17 4 -4 9 7 17 15 17 17 0 8 -8 3 -21 -13z"/>
<path d="M3375 7610 c-3 -6 1 -7 9 -4 18 7 21 14 7 14 -6 0 -13 -4 -16 -10z"/>
<path d="M3070 7596 c0 -2 8 -10 18 -17 15 -13 16 -12 3 4 -13 16 -21 21 -21
13z"/>
<path d="M5063 7535 c21 -21 40 -35 43 -32 7 7 -48 61 -66 65 -8 2 2 -13 23
-33z"/>
<path d="M5355 7549 c33 -39 38 -43 78 -62 24 -10 35 -22 31 -29 -5 -7 -3 -8
6 -3 10 6 3 18 -28 45 -24 20 -57 44 -75 55 l-32 18 20 -24z"/>
<path d="M3644 7544 c-18 -14 -18 -15 4 -4 12 6 22 13 22 15 0 8 -5 6 -26 -11z"/>
<path d="M4442 7528 c-40 -12 -71 -23 -69 -24 2 -2 37 3 78 12 70 15 228 15
324 -1 20 -3 15 1 -15 11 -74 27 -230 28 -318 2z"/>
<path d="M5123 7492 c-8 -5 -6 -15 7 -32 l19 -25 -5 25 c-5 20 -3 22 5 10 6
-8 11 -10 11 -4 0 17 -24 34 -37 26z"/>
<path d="M4308 7483 c7 -3 16 -2 19 1 4 3 -2 6 -13 5 -11 0 -14 -3 -6 -6z"/>
<path d="M3350 7476 c0 -2 7 -7 16 -10 8 -3 12 -2 9 4 -6 10 -25 14 -25 6z"/>
<path d="M4897 7469 c7 -7 15 -10 18 -7 3 3 -2 9 -12 12 -14 6 -15 5 -6 -5z"/>
<path d="M3985 7410 c-16 -7 -17 -9 -3 -9 9 -1 20 4 23 9 7 11 7 11 -20 0z"/>
<path d="M5066 7351 c-4 -5 -2 -12 3 -15 5 -4 12 -2 15 3 4 5 2 12 -3 15 -5 4
-12 2 -15 -3z"/>
<path d="M3130 7321 c0 -5 7 -12 16 -15 14 -5 15 -4 4 9 -14 17 -20 19 -20 6z"/>
<path d="M5096 7321 c-4 -5 -2 -12 3 -15 5 -4 12 -2 15 3 4 5 2 12 -3 15 -5 4
-12 2 -15 -3z"/>
<path d="M5146 7192 c-2 -4 -1 -14 4 -22 7 -11 9 -9 7 8 -1 24 -3 26 -11 14z"/>
<path d="M5179 7171 c6 -10 7 -22 3 -26 -4 -5 -1 -5 6 -1 9 5 9 12 2 27 -6 10
-13 19 -16 19 -2 0 0 -8 5 -19z"/>
<path d="M5204 7119 c0 -10 2 -16 5 -14 2 3 12 -2 21 -10 14 -13 16 -12 16 4
0 12 -5 17 -15 13 -10 -4 -13 -1 -9 10 3 8 1 15 -6 15 -6 0 -12 -8 -12 -18z"/>
<path d="M5570 7095 c0 -17 33 -121 41 -129 13 -14 10 53 -4 93 -10 30 -37 56
-37 36z"/>
<path d="M4921 7004 c0 -11 3 -14 6 -6 3 7 2 16 -1 19 -3 4 -6 -2 -5 -13z"/>
<path d="M5604 6777 c-9 -25 0 -100 14 -105 8 -3 12 12 12 52 0 53 -14 83 -26
53z"/>
<path d="M3470 6541 c0 -6 4 -13 10 -16 6 -3 7 1 4 9 -7 18 -14 21 -14 7z"/>
<path d="M4860 6475 c0 -18 -16 -20 -23 -2 -4 9 -6 9 -6 0 -1 -17 14 -24 37
-16 17 7 18 10 6 21 -12 11 -14 10 -14 -3z"/>
<path d="M5411 6296 c-9 -10 -8 -15 2 -19 8 -3 13 3 13 14 0 23 0 23 -15 5z"/>
<path d="M5447 6276 c-3 -7 12 -30 34 -51 31 -29 43 -35 52 -26 9 10 8 16 -8
27 -11 9 -19 19 -18 23 1 5 -10 8 -25 7 -20 -1 -26 3 -24 17 3 20 -4 23 -11 3z
m63 -51 c13 -14 21 -25 17 -25 -3 0 -17 11 -31 25 -14 14 -22 25 -17 25 4 0
18 -11 31 -25z"/>
<path d="M2434 6656 c11 -9 24 -16 30 -16 12 0 7 5 -24 19 -24 11 -24 11 -6
-3z"/>
<path d="M3188 6557 c12 -7 19 -17 15 -22 -4 -4 -3 -5 4 -1 6 3 20 -6 32 -23
27 -37 27 -49 1 -26 -18 17 -20 17 -14 2 3 -9 10 -17 16 -17 5 0 7 -4 3 -9 -3
-6 4 -8 17 -5 13 2 33 -1 45 -8 19 -9 21 -14 10 -26 -10 -13 -9 -14 8 -5 24
13 43 -3 39 -30 -2 -15 0 -16 12 -6 11 9 18 8 32 -2 33 -25 -4 10 -107 100
-57 50 -111 91 -120 91 -12 -1 -10 -4 7 -13z"/>
<path d="M3146 6483 c-6 -14 -5 -15 5 -6 7 7 10 15 7 18 -3 3 -9 -2 -12 -12z"/>
<path d="M3161 6464 c-21 -27 -28 -101 -15 -151 10 -38 24 -26 24 22 0 57 16
58 31 3 18 -68 28 -88 43 -88 18 0 32 92 21 140 -7 31 -59 100 -75 100 -5 0
-18 -12 -29 -26z"/>
<path d="M3286 6441 c-4 -5 -2 -12 3 -15 5 -4 12 -2 15 3 4 5 2 12 -3 15 -5 4
-12 2 -15 -3z"/>
<path d="M3638 6333 c27 -37 55 -79 62 -93 7 -14 15 -20 17 -13 6 16 -34 92
-66 126 -53 58 -61 46 -13 -20z"/>
<path d="M3442 6354 c10 -10 20 -16 22 -13 3 3 -5 11 -17 18 -21 13 -21 12 -5
-5z"/>
<path d="M3410 6340 c-9 -6 -10 -10 -3 -10 6 0 15 5 18 10 8 12 4 12 -15 0z"/>
<path d="M3490 6321 c0 -10 30 -24 37 -17 3 2 -5 9 -16 16 -12 6 -21 7 -21 1z"/>
<path d="M3723 6301 c16 -10 28 -22 27 -26 -1 -3 0 -8 2 -10 2 -2 4 4 5 14 1
11 -9 23 -23 30 -38 17 -42 13 -11 -8z"/>
<path d="M3802 6264 c8 -9 23 -14 33 -12 12 2 7 7 -16 15 -30 12 -32 11 -17
-3z"/>
<path d="M3657 6249 c7 -7 15 -10 18 -7 3 3 -2 9 -12 12 -14 6 -15 5 -6 -5z"/>
<path d="M3860 6246 c0 -3 9 -10 20 -16 11 -6 20 -8 20 -6 0 3 -9 10 -20 16
-11 6 -20 8 -20 6z"/>
<path d="M5170 6076 c0 -2 8 -10 18 -17 15 -13 16 -12 3 4 -13 16 -21 21 -21
13z"/>
<path d="M5469 5787 c-78 -71 -238 -192 -253 -191 -8 1 -12 -4 -9 -12 3 -8 7
-14 10 -14 10 0 113 61 118 71 4 5 11 9 16 9 6 0 7 -4 4 -10 -10 -16 1 -11 16
7 12 15 12 16 -1 8 -8 -5 8 13 37 39 54 49 118 124 112 131 -2 2 -25 -15 -50
-38z"/>
<path d="M5546 5821 c-4 -5 -2 -12 3 -15 5 -4 12 -2 15 3 4 5 2 12 -3 15 -5 4
-12 2 -15 -3z"/>
<path d="M7396 5380 c11 -11 304 -63 312 -55 10 10 -67 35 -154 50 -100 17
-173 20 -158 5z"/>
<path d="M7102 5313 c37 -2 100 -2 140 0 40 1 10 3 -67 3 -77 0 -110 -1 -73
-3z"/>
<path d="M6874 5303 c7 -7 77 -5 85 3 2 2 -17 4 -44 4 -27 0 -45 -3 -41 -7z"/>
<path d="M7360 5300 c0 -13 70 -13 90 0 11 7 0 10 -37 10 -29 0 -53 -4 -53
-10z"/>
<path d="M6670 5283 c-66 -10 -89 -19 -102 -36 -20 -25 -91 -157 -85 -157 2 0
25 32 52 70 26 39 56 75 67 81 37 20 113 38 183 44 38 4 72 8 74 11 9 9 -107
1 -189 -13z"/>
<path d="M7488 5293 c12 -2 32 -2 45 0 12 2 2 4 -23 4 -25 0 -35 -2 -22 -4z"/>
<path d="M7650 5270 c19 -13 30 -13 30 0 0 6 -10 10 -22 10 -19 0 -20 -2 -8
-10z"/>
<path d="M7708 5263 c7 -3 16 -2 19 1 4 3 -2 6 -13 5 -11 0 -14 -3 -6 -6z"/>
<path d="M6570 5165 c-19 -19 -30 -35 -24 -35 9 0 74 57 74 66 0 12 -20 0 -50
-31z"/>
<path d="M6677 5109 c7 -7 15 -10 18 -7 3 3 -2 9 -12 12 -14 6 -15 5 -6 -5z"/>
<path d="M8215 5095 c17 -13 26 -24 20 -25 -5 0 13 -13 40 -29 28 -16 61 -40
74 -55 13 -14 28 -23 33 -20 5 3 7 2 6 -3 -2 -4 0 -9 5 -10 4 -2 22 -10 40
-19 l32 -17 -20 22 c-51 57 -224 181 -253 181 -4 0 7 -11 23 -25z"/>
<path d="M7887 5099 c7 -7 15 -10 18 -7 3 3 -2 9 -12 12 -14 6 -15 5 -6 -5z"/>
<path d="M8160 5105 c0 -5 56 -35 65 -35 3 0 4 4 1 9 -6 10 -66 33 -66 26z"/>
<path d="M8139 5076 c7 -9 18 -16 23 -16 6 0 42 -24 82 -53 95 -71 127 -92
151 -101 52 -18 -169 144 -231 170 -35 15 -37 15 -25 0z"/>
<path d="M6749 5027 c7 -7 14 -8 21 -1 6 6 2 10 -12 11 -16 2 -18 -1 -9 -10z"/>
<path d="M8180 5008 c0 -15 24 -58 33 -58 5 0 4 7 -3 15 -7 9 -8 15 -2 15 18
0 21 -29 4 -40 -13 -8 -10 -9 16 -5 19 3 32 1 32 -5 0 -6 4 -9 9 -5 5 3 17 -2
25 -11 9 -8 21 -14 26 -12 11 3 -99 88 -114 87 -5 0 -13 5 -17 13 -5 7 -9 10
-9 6z"/>
<path d="M6839 4933 c-13 -16 -12 -17 4 -4 9 7 17 15 17 17 0 8 -8 3 -21 -13z"/>
<path d="M8480 4905 c0 -7 66 -73 100 -100 14 -10 -2 9 -35 43 -59 62 -65 67
-65 57z"/>
<path d="M6996 4791 c-3 -4 7 -19 22 -32 l27 -24 -23 26 c-12 14 -19 29 -15
32 3 4 4 7 0 7 -3 0 -8 -4 -11 -9z"/>
<path d="M8611 4763 c18 -23 51 -53 57 -53 3 0 -9 16 -28 35 -36 37 -52 47
-29 18z"/>
<path d="M7078 4708 c5 -5 16 -8 23 -6 8 3 3 7 -10 11 -17 4 -21 3 -13 -5z"/>
<path d="M8669 4673 c-13 -16 -12 -17 4 -4 16 13 21 21 13 21 -2 0 -10 -8 -17
-17z"/>
<path d="M7162 4626 c7 -8 15 -12 17 -11 5 6 -10 25 -20 25 -5 0 -4 -6 3 -14z"/>
<path d="M7320 4612 c6 -13 14 -21 18 -18 3 4 -2 14 -12 24 -18 16 -18 16 -6
-6z"/>
<path d="M7220 4586 c0 -2 7 -9 15 -16 9 -7 15 -8 15 -2 0 5 -7 12 -15 16 -8
3 -15 4 -15 2z"/>
<path d="M7344 4569 c-4 -7 -3 -10 2 -7 5 3 15 0 22 -8 11 -12 10 -15 -3 -20
-14 -6 -14 -8 1 -25 9 -10 21 -16 25 -13 5 3 9 -3 9 -13 0 -10 14 -27 30 -36
17 -10 30 -23 30 -28 0 -6 -5 -7 -12 -3 -7 4 -8 3 -4 -5 8 -12 26 -6 26 8 0 5
-15 23 -32 41 -18 18 -26 30 -18 26 11 -6 11 -4 -1 6 -9 7 -19 23 -23 34 -10
32 -42 58 -52 43z m46 -55 c0 -8 -4 -12 -10 -9 -5 3 -10 10 -10 16 0 5 5 9 10
9 6 0 10 -7 10 -16z"/>
<path d="M8743 4559 c-2 -23 3 -25 10 -4 4 8 3 16 -1 19 -4 3 -9 -4 -9 -15z"/>
<path d="M7261 4557 c-8 -11 -7 -17 7 -28 39 -33 52 -41 52 -33 0 5 -14 17
-31 27 -26 14 -29 20 -19 32 7 8 10 15 7 15 -2 0 -10 -6 -16 -13z"/>
<path d="M8693 4517 c0 -8 6 -14 14 -14 9 0 10 4 2 14 -6 7 -12 13 -14 13 -1
0 -2 -6 -2 -13z"/>
<path d="M7336 4495 c4 -8 8 -15 10 -15 2 0 4 7 4 15 0 8 -4 15 -10 15 -5 0
-7 -7 -4 -15z"/>
<path d="M8735 4470 c-2 -3 5 -6 15 -7 11 -1 22 2 24 5 3 4 -4 8 -15 8 -11 0
-22 -3 -24 -6z"/>
<path d="M7366 4451 c-3 -4 3 -16 14 -26 11 -10 20 -23 20 -30 0 -7 9 -20 21
-31 17 -16 22 -16 29 -4 13 20 12 30 -2 28 -6 -2 -14 6 -16 16 -4 19 -39 55
-54 56 -4 0 -9 -4 -12 -9z m69 -72 c11 -17 -1 -21 -15 -4 -8 9 -8 15 -2 15 6
0 14 -5 17 -11z"/>
<path d="M8766 4442 c-3 -5 2 -18 10 -28 9 -10 13 -14 10 -7 -4 6 -1 13 5 15
7 2 6 8 -4 16 -8 7 -18 9 -21 4z"/>
<path d="M8820 4365 c13 -14 25 -25 27 -25 9 0 -33 49 -41 50 -5 0 1 -11 14
-25z"/>
<path d="M7503 4324 c-4 -11 -8 -12 -13 -4 -5 7 -10 8 -13 3 -4 -6 4 -20 17
-32 22 -21 24 -21 37 -4 12 16 12 17 -2 6 -16 -13 -29 -8 -29 9 0 5 4 7 9 3 5
-3 13 0 17 6 5 8 3 9 -6 4 -10 -6 -12 -4 -7 8 3 10 4 17 1 17 -2 0 -7 -7 -11
-16z"/>
<path d="M7538 4255 c6 -11 23 -33 37 -50 l26 -30 -18 30 c-10 17 -26 39 -37
50 l-18 20 10 -20z"/>
<path d="M2040 5020 c-18 -12 -2 -12 25 0 13 6 15 9 5 9 -8 0 -22 -4 -30 -9z"/>
<path d="M2345 5001 c28 -5 53 -7 56 -5 4 2 12 -3 19 -11 7 -8 18 -15 25 -15
7 0 18 -7 25 -15 11 -13 16 -12 39 4 37 26 51 15 90 -69 18 -39 35 -69 38 -67
3 4 -71 164 -80 174 -2 2 -62 5 -133 7 -84 3 -112 2 -79 -3z"/>
<path d="M2108 4973 c6 -2 18 -2 25 0 6 3 1 5 -13 5 -14 0 -19 -2 -12 -5z"/>
<path d="M1963 4940 c-34 -14 -28 -21 7 -9 17 6 30 13 30 15 0 6 -12 4 -37 -6z"/>
<path d="M1846 4885 c-11 -8 -16 -15 -10 -15 5 0 18 7 28 15 11 8 16 15 10 15
-5 0 -18 -7 -28 -15z"/>
<path d="M1705 4804 c-135 -90 -372 -334 -359 -368 3 -9 11 -16 16 -16 6 0 7
7 4 16 -6 15 -4 15 10 3 16 -13 16 -12 5 9 -12 23 -12 23 11 11 22 -11 22 -11
6 7 -16 18 -15 19 9 21 20 1 23 -1 12 -9 -11 -8 -10 -9 4 -4 10 3 21 6 24 6 3
0 0 7 -7 15 -11 13 -10 14 2 10 8 -3 23 3 33 15 10 11 15 20 11 20 -4 0 -1 6
6 14 7 8 17 11 22 8 5 -3 6 0 2 6 -4 7 -1 12 8 12 8 0 18 4 21 10 3 6 -1 7
-10 4 -11 -5 -14 -2 -8 12 5 13 3 15 -8 9 -11 -6 -12 -5 -2 5 10 11 15 11 28
0 17 -14 21 0 4 17 -17 17 9 27 29 12 9 -7 14 -9 10 -5 -4 5 0 15 10 22 10 8
12 13 5 14 -19 0 -15 30 5 37 9 4 25 16 34 28 10 11 17 16 18 12 0 -5 6 -2 14
5 7 7 24 20 36 28 39 26 65 49 55 49 -5 -1 -32 -16 -60 -35z m-115 -128 c0
-11 -19 -15 -25 -6 -3 5 1 10 9 10 9 0 16 -2 16 -4z m-91 -102 c-6 -7 -15 -11
-21 -8 -5 3 -4 12 3 20 6 7 15 11 21 8 5 -3 4 -12 -3 -20z m-56 -39 c-3 -9 -8
-14 -10 -11 -3 3 -2 9 2 15 9 16 15 13 8 -4z m27 -9 c0 -3 -4 -8 -10 -11 -5
-3 -10 -1 -10 4 0 6 5 11 10 11 6 0 10 -2 10 -4z"/>
<path d="M2644 4785 c2 -16 7 -28 12 -26 10 3 8 16 -6 41 -6 10 -8 6 -6 -15z"/>
<path d="M2691 4712 c6 -13 8 -30 5 -38 -4 -10 -2 -12 6 -8 8 5 9 2 5 -10 -4
-9 -3 -15 1 -12 4 3 13 -4 20 -14 10 -16 9 -18 -5 -13 -12 5 -11 -1 7 -24 13
-18 19 -36 15 -44 -6 -8 -4 -10 4 -5 7 5 10 15 7 25 -5 14 -4 14 7 -1 8 -10
13 -31 12 -48 -1 -24 1 -28 12 -18 11 8 12 7 7 -5 -3 -9 -2 -22 2 -29 4 -7 9
-20 9 -29 2 -20 105 -152 113 -145 3 3 -1 12 -7 20 -7 8 -9 21 -5 28 4 7 4 10
0 6 -4 -3 -24 25 -43 62 -20 38 -40 67 -46 63 -6 -3 -7 -1 -3 5 3 6 -21 59
-54 119 -60 108 -90 159 -69 115z"/>
<path d="M2617 4703 c3 -7 6 -13 8 -13 2 0 5 6 8 13 3 8 -1 14 -8 14 -7 0 -11
-6 -8 -14z"/>
<path d="M1319 4419 c-12 -19 -13 -29 -4 -46 9 -17 14 -20 23 -11 15 15 16 38
1 38 -5 0 -7 -5 -3 -12 4 -7 3 -8 -5 -4 -9 6 -9 11 -1 22 7 7 10 19 8 25 -2 7
-11 1 -19 -12z"/>
<path d="M1225 4229 c-4 -6 -5 -12 -2 -15 2 -3 7 2 10 11 7 17 1 20 -8 4z"/>
<path d="M2191 4164 c0 -11 3 -14 6 -6 3 7 2 16 -1 19 -3 4 -6 -2 -5 -13z"/>
<path d="M4346 4071 c-11 -4 -15 -10 -10 -13 5 -4 18 0 29 8 20 15 12 17 -19
5z"/>
<path d="M4836 3795 c13 -48 13 -59 2 -66 -9 -6 -9 -9 -1 -9 6 0 14 4 18 9 6
11 -14 102 -26 115 -4 5 -1 -17 7 -49z"/>
<path d="M4770 3804 c0 -11 7 -29 16 -40 14 -18 15 -18 8 6 -3 14 -10 32 -15
40 -7 12 -8 11 -9 -6z"/>
<path d="M5251 3626 c14 -17 37 -46 52 -64 15 -19 27 -30 27 -25 0 4 -24 33
-53 64 -28 30 -40 42 -26 25z"/>
<path d="M4680 3500 c-9 -6 -10 -10 -3 -10 6 0 15 5 18 10 8 12 4 12 -15 0z"/>
<path d="M5375 3480 c10 -11 20 -20 23 -20 3 0 -3 9 -13 20 -10 11 -20 20 -23
20 -3 0 3 -9 13 -20z"/>
<path d="M5460 3385 c19 -19 36 -35 39 -35 3 0 -10 16 -29 35 -19 19 -36 35
-39 35 -3 0 10 -16 29 -35z"/>
<path d="M5540 3395 c0 -3 16 -25 35 -51 43 -56 47 -43 5 14 -28 39 -40 50
-40 37z"/>
<path d="M5526 3318 c10 -14 21 -24 23 -22 3 3 -6 15 -18 27 l-24 22 19 -27z"/>
<path d="M4661 3304 c-12 -15 -21 -32 -21 -38 0 -6 9 2 20 19 11 16 27 33 37
37 16 6 16 7 1 7 -9 1 -26 -11 -37 -25z"/>
<path d="M4755 3310 c27 -12 43 -12 25 0 -8 5 -22 9 -30 9 -10 0 -8 -3 5 -9z"/>
<path d="M5625 3301 c-3 -6 7 -23 22 -38 15 -16 20 -19 9 -7 -10 13 -15 27
-12 33 4 5 2 12 -3 15 -5 4 -12 2 -16 -3z"/>
<path d="M4822 3250 c0 -14 2 -19 5 -12 2 6 2 18 0 25 -3 6 -5 1 -5 -13z"/>
<path d="M5625 3230 c10 -11 20 -20 23 -20 3 0 -3 9 -13 20 -10 11 -20 20 -23
20 -3 0 3 -9 13 -20z"/>
<path d="M4997 3008 c-93 -120 -284 -147 -384 -55 -13 11 -23 17 -23 12 0 -12
70 -73 105 -92 21 -12 53 -16 107 -15 109 2 148 14 176 57 22 35 65 135 60
140 -2 1 -20 -20 -41 -47z"/>
<path d="M5931 2992 c-7 -31 -15 -63 -18 -69 -2 -7 0 -13 6 -13 15 0 41 55 41
87 0 56 -16 53 -29 -5z"/>
<path d="M5990 2976 c0 -2 7 -7 16 -10 8 -3 12 -2 9 4 -6 10 -25 14 -25 6z"/>
<path d="M6030 2957 c0 -9 70 -64 74 -59 2 4 -14 19 -35 34 -22 15 -39 26 -39
25z"/>
<path d="M4360 2914 c0 -26 47 -171 90 -279 81 -204 179 -382 281 -514 36 -45
21 6 -37 132 -57 122 -322 658 -330 666 -2 2 -4 0 -4 -5z"/>
<path d="M6003 2904 c0 -16 6 -17 25 -5 11 6 9 9 -5 13 -12 3 -20 0 -20 -8z"/>
<path d="M6150 2876 c0 -2 8 -10 18 -17 15 -13 16 -12 3 4 -13 16 -21 21 -21
13z"/>
<path d="M5970 2856 c0 -2 7 -9 15 -16 9 -7 15 -8 15 -2 0 5 -7 12 -15 16 -8
3 -15 4 -15 2z"/>
<path d="M6228 2815 c18 -15 29 -31 26 -37 -5 -7 -2 -8 5 -4 7 5 20 2 30 -6 9
-7 1 2 -18 20 -20 18 -45 37 -56 43 -11 6 -5 -1 13 -16z"/>
<path d="M6420 2659 c0 -7 27 -36 63 -68 43 -39 31 -19 -18 29 -25 24 -45 42
-45 39z"/>
<path d="M6549 2511 c11 -15 18 -30 16 -33 -3 -3 1 -5 9 -5 10 0 7 10 -11 34
-31 40 -42 44 -14 4z"/>
<path d="M6180 2520 c8 -5 20 -10 25 -10 6 0 3 5 -5 10 -8 5 -19 10 -25 10 -5
0 -3 -5 5 -10z"/>
<path d="M5191 2494 c0 -11 3 -14 6 -6 3 7 2 16 -1 19 -3 4 -6 -2 -5 -13z"/>
<path d="M6450 2462 c0 -26 25 -56 38 -48 19 11 14 44 -7 56 -27 14 -31 13
-31 -8z"/>
<path d="M6100 2440 c8 -5 20 -10 25 -10 6 0 3 5 -5 10 -8 5 -19 10 -25 10 -5
0 -3 -5 5 -10z"/>
<path d="M6156 2415 c10 -8 23 -15 28 -15 6 0 1 7 -10 15 -10 8 -23 15 -28 15
-6 0 -1 -7 10 -15z"/>
<path d="M6610 2426 c0 -2 8 -10 18 -17 15 -13 16 -12 3 4 -13 16 -21 21 -21
13z"/>
<path d="M5214 2365 c4 -16 12 -34 17 -40 5 -5 4 6 -2 25 -15 45 -24 54 -15
15z"/>
<path d="M5779 2373 c-13 -16 -12 -17 4 -4 16 13 21 21 13 21 -2 0 -10 -8 -17
-17z"/>
<path d="M6711 2265 c0 -5 6 -21 14 -35 8 -14 14 -20 14 -15 0 6 -6 21 -14 35
-8 14 -14 21 -14 15z"/>
<path d="M5864 2208 l-19 -23 23 19 c12 11 22 21 22 23 0 8 -8 2 -26 -19z"/>
<path d="M5220 2181 c0 -6 4 -13 10 -16 6 -3 7 1 4 9 -7 18 -14 21 -14 7z"/>
<path d="M6006 2176 c10 -8 21 -12 24 -10 5 6 -21 24 -34 24 -6 0 -1 -6 10
-14z"/>
<path d="M5280 2163 c0 -5 7 -18 15 -29 13 -18 14 -18 8 4 -5 22 -23 41 -23
25z"/>
<path d="M5892 2140 c-12 -16 -22 -32 -22 -37 0 -4 11 8 25 27 14 19 25 35 25
37 0 8 -8 0 -28 -27z"/>
<path d="M6660 2132 c0 -10 6 -38 14 -63 8 -24 17 -57 21 -73 6 -27 7 -27 20
-10 21 28 18 61 -12 115 -27 51 -43 62 -43 31z"/>
<path d="M6767 2126 c3 -15 10 -29 15 -32 6 -4 7 2 3 17 -10 35 -23 45 -18 15z"/>
<path d="M5312 2085 c0 -16 2 -22 5 -12 2 9 2 23 0 30 -3 6 -5 -1 -5 -18z"/>
<path d="M6822 1990 c0 -8 4 -26 8 -40 6 -20 8 -21 8 -5 0 11 -3 29 -8 40 -5
12 -8 14 -8 5z"/>
<path d="M4681 1913 c2 -56 2 -56 9 -18 l7 40 3 -35 2 -35 8 30 8 30 2 -30 c1
-19 4 -24 7 -12 3 10 1 26 -3 35 -4 9 -7 20 -6 24 1 4 -7 12 -18 18 -19 10
-20 8 -19 -47z"/>
<path d="M4661 1934 c0 -11 3 -14 6 -6 3 7 2 16 -1 19 -3 4 -6 -2 -5 -13z"/>
<path d="M6420 1918 c-29 -44 -31 -53 -6 -25 14 15 26 32 26 38 0 14 -4 11
-20 -13z"/>
<path d="M6747 1913 c-11 -10 -8 -141 3 -148 6 -4 10 23 10 74 0 81 -1 87 -13
74z"/>
<path d="M6455 1874 c-9 -15 -12 -23 -6 -20 11 7 35 46 28 46 -3 0 -12 -12
-22 -26z"/>
<path d="M6354 1849 c-19 -22 -19 -22 4 -8 12 8 22 17 22 21 0 12 -6 9 -26
-13z"/>
<path d="M6772 1845 c0 -16 2 -22 5 -12 2 9 2 23 0 30 -3 6 -5 -1 -5 -18z"/>
<path d="M6385 1810 c-3 -6 1 -7 9 -4 18 7 21 14 7 14 -6 0 -13 -4 -16 -10z"/>
<path d="M6558 1775 c-33 -54 -95 -100 -162 -121 -76 -23 -268 -29 -336 -11
-30 9 -57 14 -58 12 -2 -2 13 -12 35 -23 99 -50 279 -67 384 -36 93 28 108 44
163 178 18 44 19 46 9 46 -5 0 -20 -20 -35 -45z"/>
<path d="M5770 1740 c12 -16 24 -30 26 -30 3 0 -4 14 -16 30 -12 17 -24 30
-26 30 -3 0 4 -13 16 -30z"/>
<path d="M5815 1680 c10 -11 20 -20 23 -20 3 0 -3 9 -13 20 -10 11 -20 20 -23
20 -3 0 3 -9 13 -20z"/>
<path d="M4984 1668 c-6 -7 -16 -26 -22 -41 -11 -26 -11 -28 10 -25 13 2 25
14 31 31 10 32 -3 57 -19 35z"/>
<path d="M6228 1673 c6 -2 18 -2 25 0 6 3 1 5 -13 5 -14 0 -19 -2 -12 -5z"/>
<path d="M4718 1243 c7 -3 16 -2 19 1 4 3 -2 6 -13 5 -11 0 -14 -3 -6 -6z"/>
<path d="M4460 4879 c-36 -11 -85 -26 -110 -34 l-45 -14 50 5 c70 8 151 32
165 49 7 8 11 15 9 14 -2 0 -33 -9 -69 -20z"/>
<path d="M3710 4715 c-19 -19 -30 -35 -24 -35 16 1 76 58 66 64 -5 3 -24 -10
-42 -29z"/>
<path d="M3439 4533 c-50 -47 -77 -83 -62 -83 12 0 133 110 133 121 0 19 -23
7 -71 -38z"/>
<path d="M7569 4789 c14 -11 37 -23 53 -26 15 -3 25 -9 22 -14 -3 -5 -1 -9 5
-9 5 0 12 4 15 9 6 9 -31 30 -89 50 l-30 11 24 -21z"/>
<path d="M7670 4731 c0 -6 5 -13 10 -16 6 -3 10 1 10 9 0 9 -4 16 -10 16 -5 0
-10 -4 -10 -9z"/>
<path d="M7509 4713 c-13 -16 -12 -17 4 -4 9 7 17 15 17 17 0 8 -8 3 -21 -13z"/>
<path d="M7703 4708 c2 -7 12 -12 22 -10 11 2 14 -1 9 -9 -4 -8 -3 -10 4 -5 7
4 12 3 12 -2 0 -6 16 -19 36 -31 46 -27 59 -27 17 0 -19 12 -30 26 -26 32 3 7
3 9 -2 5 -4 -4 -19 2 -33 12 -28 23 -46 26 -39 8z"/>
<path d="M7907 4699 c4 -4 15 -9 23 -11 22 -5 39 -22 32 -33 -3 -5 -1 -7 3 -2
11 10 56 -33 48 -46 -4 -6 -1 -7 6 -3 9 6 8 13 -5 27 -9 10 -13 19 -8 19 5 0
1 5 -9 11 -9 6 -14 15 -11 21 4 7 2 8 -5 4 -6 -4 -19 -2 -27 5 -17 14 -60 21
-47 8z"/>
<path d="M8043 4623 c4 -3 1 -13 -6 -22 -11 -14 -10 -14 5 -2 16 12 16 31 1
31 -4 0 -3 -3 0 -7z"/>
<path d="M7850 4616 c0 -2 8 -10 18 -17 15 -13 16 -12 3 4 -13 16 -21 21 -21
13z"/>
<path d="M8050 4585 c-11 -13 -10 -14 4 -9 9 3 16 10 16 15 0 13 -6 11 -20 -6z"/>
<path d="M7540 4586 c0 -2 8 -10 18 -17 15 -13 16 -12 3 4 -13 16 -21 21 -21
13z"/>
<path d="M8082 4584 c4 -4 3 -14 -2 -23 -12 -23 24 -26 42 -3 12 15 11 16 -5
3 -9 -8 -21 -11 -24 -7 -4 4 -2 11 6 15 10 6 9 10 -5 15 -10 4 -15 4 -12 0z"/>
<path d="M8160 4576 c0 -3 9 -10 20 -16 11 -6 20 -8 20 -6 0 3 -9 10 -20 16
-11 6 -20 8 -20 6z"/>
<path d="M8120 4525 c0 -5 5 -17 10 -25 5 -8 10 -10 10 -5 0 6 -5 17 -10 25
-5 8 -10 11 -10 5z"/>
<path d="M7693 4494 c-7 -19 16 -64 34 -64 15 0 17 19 3 54 -11 29 -28 34 -37
10z"/>
<path d="M7620 4475 c0 -5 8 -23 19 -38 15 -24 19 -26 25 -12 9 24 7 32 -3 16
-7 -11 -12 -7 -25 15 -8 16 -15 25 -16 19z"/>
<path d="M8330 4446 c0 -2 7 -7 16 -10 8 -3 12 -2 9 4 -6 10 -25 14 -25 6z"/>
<path d="M7847 4382 c-7 -11 -1 -51 8 -59 4 -5 5 -2 1 5 -5 8 1 12 19 12 19 0
26 5 23 16 -3 18 -44 38 -51 26z"/>
<path d="M8417 4355 c-4 -8 -3 -16 1 -19 4 -3 9 4 9 15 2 23 -3 25 -10 4z"/>
<path d="M8520 4336 c0 -2 7 -7 16 -10 8 -3 12 -2 9 4 -6 10 -25 14 -25 6z"/>
<path d="M4975 4500 c10 -11 20 -20 23 -20 3 0 -3 9 -13 20 -10 11 -20 20 -23
20 -3 0 3 -9 13 -20z"/>
<path d="M7242 4200 c7 -11 17 -20 22 -20 5 0 1 9 -9 20 -10 11 -20 20 -22 20
-2 0 2 -9 9 -20z"/>
<path d="M7277 4199 c7 -7 15 -10 18 -7 3 3 -2 9 -12 12 -14 6 -15 5 -6 -5z"/>
<path d="M7553 4026 c7 -14 14 -23 16 -20 2 2 14 -4 25 -13 12 -10 5 -1 -13
20 -19 20 -36 37 -37 37 -1 0 3 -11 9 -24z"/>
<path d="M1895 4441 c-3 -5 -2 -12 3 -15 5 -3 9 1 9 9 0 17 -3 19 -12 6z"/>
<path d="M1852 4276 c-37 -43 -44 -73 -12 -56 22 12 53 65 48 82 -2 6 -18 -6
-36 -26z"/>
<path d="M1446 4265 c-9 -25 -7 -47 4 -40 5 3 7 12 3 20 -4 11 0 14 13 9 11
-3 15 -2 9 3 -5 4 -13 12 -16 16 -4 4 -9 1 -13 -8z"/>
<path d="M1416 4207 c3 -10 9 -15 12 -12 3 3 0 11 -7 18 -10 9 -11 8 -5 -6z"/>
<path d="M1376 4168 c3 -5 10 -6 15 -3 13 9 11 12 -6 12 -8 0 -12 -4 -9 -9z"/>
<path d="M1420 4170 c-9 -6 -10 -10 -3 -10 6 0 15 5 18 10 8 12 4 12 -15 0z"/>
<path d="M1368 4133 c7 -3 16 -2 19 1 4 3 -2 6 -13 5 -11 0 -14 -3 -6 -6z"/>
<path d="M6647 4293 c-2 -5 5 -28 15 -52 24 -54 47 -43 25 11 -15 37 -32 54
-40 41z"/>
<path d="M6730 4252 c0 -26 4 -41 10 -37 13 8 13 45 0 65 -7 11 -10 3 -10 -28z"/>
<path d="M6700 4251 c0 -6 4 -13 10 -16 6 -3 7 1 4 9 -7 18 -14 21 -14 7z"/>
<path d="M6522 4169 c-10 -68 -9 -90 3 -77 9 9 22 127 15 139 -4 6 -12 -22
-18 -62z"/>
<path d="M3860 4080 c-7 -17 -10 -33 -8 -36 3 -3 11 9 17 27 6 18 9 34 7 36
-2 2 -9 -10 -16 -27z"/>
<path d="M3190 4033 c0 -41 13 -35 24 10 5 20 3 27 -9 27 -11 0 -15 -11 -15
-37z"/>
<path d="M2945 3775 c-3 -11 -11 -30 -15 -42 -16 -38 -23 -120 -12 -127 12 -7
16 4 32 96 12 67 9 112 -5 73z"/>
<path d="M2991 3708 c-18 -95 -21 -132 -12 -168 8 -38 8 -39 27 163 6 71 -1
74 -15 5z"/>
<path d="M8116 3259 c-17 -15 -33 -26 -38 -23 -4 3 -5 -2 -2 -10 5 -12 0 -16
-19 -16 -14 0 -29 -5 -33 -11 -5 -9 1 -10 22 -5 16 5 37 9 46 11 19 4 68 52
68 66 0 19 -17 14 -44 -12z m-4 -29 c-12 -12 -22 -18 -22 -14 0 12 33 45 38
39 3 -3 -4 -14 -16 -25z"/>
<path d="M8280 2721 c0 -5 5 -13 10 -16 6 -3 10 -2 10 4 0 5 -4 13 -10 16 -5
3 -10 2 -10 -4z"/>
<path d="M7070 2030 c19 -11 40 -19 45 -19 6 0 -6 8 -25 19 -19 11 -39 19 -45
19 -5 0 6 -8 25 -19z"/>
<path d="M7140 2004 c0 -2 9 -8 20 -14 11 -6 20 -7 20 -2 0 6 -9 12 -20 15
-11 3 -20 3 -20 1z"/>
<path d="M7700 1978 c0 -3 9 -63 20 -134 11 -71 20 -132 20 -136 0 -5 5 -8 11
-8 19 0 -19 250 -42 275 -5 5 -9 6 -9 3z"/>
<path d="M7382 1900 c0 -14 4 -38 8 -55 l8 -30 0 30 c0 17 -4 41 -8 55 l-8 25
0 -25z"/>
<path d="M7343 1877 c3 -7 13 -41 22 -75 10 -35 20 -61 22 -58 6 5 -36 146
-43 146 -4 0 -4 -6 -1 -13z"/>
<path d="M4186 2513 c-16 -20 -23 -33 -15 -28 23 13 59 48 59 57 0 17 -16 7
-44 -29z"/>
<path d="M3150 2050 c0 -5 5 -10 11 -10 5 0 7 5 4 10 -3 6 -8 10 -11 10 -2 0
-4 -4 -4 -10z"/>
<path d="M3062 1719 c3 -21 32 -48 42 -39 2 3 2 17 -1 33 -7 34 -46 40 -41 6z"/>
<path d="M4365 1070 c-7 -12 2 -12 30 0 19 8 19 9 -2 9 -12 1 -25 -3 -28 -9z"/>
<path d="M6059 973 c-13 -16 -12 -17 4 -4 9 7 17 15 17 17 0 8 -8 3 -21 -13z"/>
<path d="M6065 949 c-4 -6 -14 -8 -23 -4 -9 3 -13 3 -10 -1 4 -4 2 -16 -4 -28
-10 -18 -9 -19 4 -8 11 9 18 9 21 2 3 -6 4 -5 3 2 -2 7 3 21 12 31 8 9 12 17
9 17 -3 0 -9 -5 -12 -11z"/>
</g>
</svg>
